<svg xmlns="http://www.w3.org/2000/svg" xmlns:xlink="http://www.w3.org/1999/xlink" version="1.1" viewBox="73.12 55.77 126.98 108.31">
<defs>
<path id="path_9fc03837b93e433f97bbcb8bb79352b7" d="M 80.97351 163.9976 C 80.79822 163.7139 81.81934 158.2122 82.38171 156.4104 C 82.43872 156.2278 82.60779 155.6807 82.75769 155.1938 C 83.55542 152.6052 85.21362 149.1797 86.93518 146.5657 C 87.36182 145.9177 87.76636 145.2883 87.83398 145.1665 C 87.90186 145.0449 88.05981 144.7795 88.1853 144.5767 C 88.56592 143.9622 88.98523 143.1458 88.98523 143.0198 C 88.98523 142.9133 88.96436 142.9146 88.78235 143.0315 C 88.04749 143.5042 86.20654 144.9548 85.40186 145.696 C 84.87634 146.1799 84.13098 146.8267 83.74524 147.1331 C 83.35962 147.4397 82.75537 147.9561 82.4021 148.2805 C 81.81458 148.8201 81.24866 149.2888 79.13269 150.9883 C 78.72668 151.3145 78.05176 151.8123 77.63293 152.0947 C 77.21411 152.3772 76.64954 152.7932 76.37842 153.019 C 75.28442 153.9307 73.32947 155.3782 73.19238 155.3782 C 73.1499 155.3782 73.1178 155.176 73.1178 154.9094 L 73.1178 154.4407 L 73.86902 153.8264 C 74.28223 153.4885 75.10413 152.762 75.69568 152.2117 C 76.28723 151.6614 76.98706 151.0293 77.25085 150.8076 C 77.51465 150.5857 78.14551 150.021 78.65295 149.5527 C 79.16028 149.0845 79.85791 148.4534 80.20288 148.1506 C 80.54785 147.8481 81.09595 147.3384 81.42065 147.0181 C 81.74548 146.6975 82.30994 146.1877 82.67529 145.8853 C 83.04065 145.5825 83.75452 144.9451 84.26196 144.4683 C 85.39722 143.4014 85.37158 143.4226 86.77112 142.3757 C 88.14734 141.3464 88.91504 140.9275 89.4231 140.9275 C 89.87598 140.9275 90.21985 141.1499 90.44849 141.5913 C 90.60242 141.8882 90.61658 141.9951 90.58582 142.623 C 90.54846 143.3828 90.40845 143.8015 89.8219 144.9087 C 89.36389 145.7729 88.71997 146.8572 88.24548 147.5627 C 87.42053 148.79 86.22046 151.0918 85.11279 153.5718 C 84.19141 155.6348 83.00513 158.9023 82.34204 161.2029 C 82.17249 161.7908 81.97473 162.4543 81.90259 162.6775 C 81.83044 162.9004 81.72949 163.2654 81.67847 163.4885 C 81.62756 163.7114 81.55286 163.9355 81.5127 163.9861 C 81.42249 164.0999 81.04175 164.1077 80.97351 163.9976 Z M 104.8743 163.9897 C 104.7505 163.8345 104.6163 162.498 104.6208 161.4631 C 104.6425 156.429 104.9027 151.3245 105.2581 148.9636 C 105.3704 148.217 105.5487 146.76 105.8492 144.1345 C 106.2283 140.8242 106.4241 139.4927 106.8207 137.5359 C 106.8823 137.2317 106.993 136.6843 107.0669 136.3193 C 107.1406 135.9543 107.3494 135.0752 107.5309 134.3655 C 108.3303 131.2383 108.3351 131.2141 108.2151 130.8162 C 108.1608 130.635 107.9918 130.2234 107.8402 129.9011 C 107.606 129.4033 107.4465 129.1985 106.7806 128.5408 C 105.895 127.6665 105.4969 127.4302 104.5931 127.2434 C 103.9353 127.1077 103.3383 127.166 102.6111 127.4377 C 102.1541 127.6086 101.4027 128.0747 100.9963 128.4395 C 100.6115 128.7852 100.2771 128.7476 100.2771 128.3584 C 100.2771 127.9717 100.9027 125.7004 101.2423 124.8542 C 101.3154 124.6719 101.4651 124.2903 101.5747 124.0063 C 102.3243 122.0664 103.2793 120.2778 104.4683 118.5874 C 104.8434 118.0542 106.3717 116.1963 106.6155 115.9771 C 106.7012 115.8997 106.7717 115.8083 106.7717 115.7742 C 106.7717 115.6973 104.5977 115.7031 104.041 115.7815 C 103.3314 115.8816 101.8073 116.2158 101.3104 116.3806 C 100.7684 116.5603 99.55969 116.9929 99.17017 117.1462 C 99.02808 117.2024 98.60522 117.3682 98.23035 117.5149 C 97.85559 117.6619 97.27405 117.9092 96.9386 118.0652 C 96.60315 118.2209 96.06311 118.4717 95.7384 118.6226 C 93.68921 119.5747 91.93628 120.5022 88.85364 122.2654 C 85.84082 123.9888 83.7489 125.334 81.56824 126.9504 C 81.12183 127.2815 80.37769 127.8127 79.91528 128.1311 C 79.45264 128.4495 78.68872 129.0059 78.21777 129.3679 C 77.74658 129.7297 77.09595 130.2031 76.77112 130.4194 C 76.44629 130.6357 75.84851 131.0989 75.44263 131.4485 C 74.79993 132.0024 73.36475 132.9646 73.18152 132.9646 C 73.14648 132.9646 73.1178 132.7656 73.1178 132.5222 C 73.1178 132.2468 73.1488 132.0798 73.19995 132.0798 C 73.245 132.0798 73.8186 131.5405 74.47461 130.8816 C 76.08618 129.2627 77.67139 127.8728 79.4165 126.5483 C 79.81604 126.2451 80.61316 125.6382 81.18787 125.1995 C 83.46216 123.4634 87.15063 121.1589 90.68274 119.2671 C 90.86548 119.1692 91.04797 119.0623 91.08862 119.0295 C 91.21826 118.9246 94.02246 117.5085 94.85828 117.126 C 95.30164 116.9231 95.97974 116.6094 96.36548 116.4292 C 96.7511 116.2488 97.14978 116.0759 97.2511 116.0452 C 97.35254 116.0142 97.47302 115.9592 97.51855 115.9229 C 97.56421 115.8865 97.82971 115.7776 98.10889 115.6804 C 98.38818 115.5833 98.8988 115.3982 99.2439 115.2688 C 100.3252 114.8633 101.3348 114.5476 101.83 114.46 C 102.0922 114.4133 102.5061 114.3245 102.7495 114.2625 C 103.819 113.9895 105.8168 113.8733 107.0669 114.0115 C 107.6052 114.0708 107.8676 114.1489 108.1049 114.3203 C 108.1991 114.3882 108.3351 114.3113 108.8429 113.9014 C 109.8604 113.0808 111.0953 112.3347 112.0486 111.9648 C 112.5448 111.7722 114.0245 111.3826 114.4929 111.321 C 114.701 111.2937 114.9075 111.249 114.9521 111.2214 C 115.0537 111.1587 115.3423 110.1677 115.5549 109.1499 C 115.644 108.7241 115.7283 108.3567 115.7426 108.3335 C 115.7568 108.3101 115.8492 107.8953 115.9485 107.4119 C 116.0704 106.8164 116.1456 106.1365 116.181 105.3059 L 116.2334 104.0791 L 115.6908 104.0264 C 115.0483 103.9636 114.1857 103.6443 113.6935 103.2859 C 112.955 102.7488 112.1989 101.6389 111.8398 100.5654 C 111.74 100.266 111.61 100.0212 111.5266 99.97546 C 111.4484 99.93237 111.2515 99.77966 111.0891 99.63635 C 110.9268 99.49304 110.5164 99.21094 110.1775 99.00964 C 109.1526 98.401 108.1049 97.32642 106.8379 95.58398 C 105.8284 94.19568 105.3597 93.20959 104.9307 91.57019 C 104.5107 89.96667 104.4038 88.56946 104.5857 87.06812 C 104.7021 86.10864 105.0739 84.50342 105.2603 84.15613 C 105.5474 83.62122 105.9598 82.7467 105.9598 82.67261 C 105.9598 82.60461 104.9165 81.39587 104.5989 81.09607 C 104.5559 81.05554 104.3389 80.80688 104.1168 80.54321 C 103.8948 80.27954 103.3241 79.65869 102.849 79.16345 C 101.9061 78.1803 101.2485 77.39429 101.0612 77.02612 C 100.9952 76.89624 100.9414 76.61938 100.9414 76.41052 C 100.9414 76.08191 100.9719 76.00269 101.1682 75.81946 C 101.2928 75.70312 101.5165 75.58508 101.6653 75.55713 C 101.814 75.5293 102.7333 75.5509 103.708 75.60498 C 104.6826 75.65906 105.7294 75.70581 106.0336 75.70862 L 106.587 75.71387 L 106.5658 73.28491 C 106.5469 71.104 106.5262 70.75403 106.3671 69.85657 C 106.2692 69.30688 106.1382 68.69116 106.0754 68.48853 C 105.8772 67.84778 105.9677 67.42847 106.3593 67.17212 C 106.5741 67.03149 107.0044 67.01318 107.2378 67.13464 C 107.6992 67.375 109.3247 68.92725 111.0723 70.79614 C 111.8419 71.61938 112.5109 72.28308 112.5587 72.27087 C 112.6064 72.25842 113.0333 71.83374 113.5077 71.3269 C 113.9819 70.82007 114.5524 70.2561 114.7751 70.07349 C 115.8621 69.18286 118.1345 68.06067 119.6425 67.66968 C 122.597 66.90393 127.5941 67.11743 130.1432 68.11877 C 130.4202 68.22754 131.0869 68.52954 131.625 68.78955 C 132.1631 69.0498 132.6199 69.26257 132.6399 69.26257 C 132.7009 69.26257 132.6794 68.87231 132.6036 68.599 C 132.5642 68.45715 132.4497 67.85974 132.3489 67.27185 C 131.9689 65.05591 131.418 62.85803 130.6949 60.6731 C 130.5741 60.30811 130.4365 59.86035 130.389 59.67773 C 130.2181 59.02075 129.4502 57.07349 129.2485 56.78601 C 129.0939 56.56531 129.104 56.33582 129.275 56.18115 C 129.4048 56.06384 129.448 56.0625 129.8101 56.16296 C 131.006 56.49451 132.4464 57.20081 133.3302 57.88928 C 135.9944 59.96484 138.2598 62.85352 140.1113 66.53687 C 140.2024 66.71802 140.371 67.14648 140.4856 67.48865 C 140.6003 67.83093 140.7336 68.12415 140.7814 68.14001 C 140.9955 68.21118 140.8051 65.97937 140.4628 64.4043 C 140.3252 63.77148 140.1439 62.93835 140.0599 62.5531 C 139.7023 60.91309 138.8871 58.33398 138.3949 57.2854 C 138.0319 56.51245 137.9884 56.19141 138.2141 55.95142 C 138.3079 55.85168 138.4628 55.77002 138.558 55.77002 C 138.8918 55.77002 139.9449 56.91785 140.7567 58.16626 C 140.9941 58.53113 141.4235 59.16162 141.7109 59.56714 C 142.392 60.52722 142.928 61.35107 143.3186 62.03699 C 143.4918 62.34119 143.6915 62.6897 143.7621 62.81128 C 144.4862 64.05737 146.5194 68.35205 147.0259 69.70496 C 147.1398 70.00916 147.3086 70.44043 147.401 70.66345 C 147.4933 70.88647 147.6903 71.38416 147.8386 71.76941 C 147.9871 72.15466 148.1703 72.61902 148.2458 72.80176 C 148.3214 72.98425 148.4902 73.41541 148.6211 73.76001 C 148.752 74.10461 148.9176 74.53589 148.9888 74.71838 C 149.0599 74.90112 149.1427 75.1665 149.1726 75.30847 C 149.2023 75.45032 149.2914 75.7655 149.3699 76.00891 C 149.7286 77.11877 149.9257 79.16663 149.8026 80.50867 C 149.7583 80.9939 149.6843 81.58997 149.6387 81.83337 C 149.5441 82.33411 149.1635 83.15979 148.8234 83.60144 C 147.7418 85.00525 145.2789 85.68628 143.0325 85.20276 C 142.6195 85.11377 142.194 85.00781 142.0868 84.96716 C 141.7158 84.82629 141.6769 84.85828 141.7977 85.20642 C 141.8893 85.47009 141.9896 85.57239 142.4288 85.85156 C 143.2179 86.35291 143.8824 87.09546 144.1466 87.77063 C 144.3353 88.2533 144.3663 88.4408 144.3947 89.28186 C 144.4137 89.84314 144.3942 90.3606 144.3483 90.5271 L 144.2693 90.81213 L 144.8818 91.41003 C 145.5599 92.07214 145.8645 92.55164 146.158 93.41882 C 146.3306 93.92883 146.3536 94.10962 146.3492 94.92029 C 146.345 95.7478 146.3214 95.90735 146.1213 96.48364 C 145.9366 97.01501 145.5613 97.71082 145.3733 97.86963 C 145.1672 98.04346 144.3419 99.07104 144.3707 99.11755 C 144.3911 99.15063 144.5107 99.19812 144.6367 99.22327 C 145.3573 99.36719 146.4556 100.1703 146.9204 100.8931 C 147.162 101.2687 147.3629 101.9552 147.3629 102.4039 C 147.3629 103.4187 146.7004 104.4775 145.6992 105.0637 L 145.3583 105.2632 L 145.4073 105.7136 C 145.4342 105.9612 145.5192 106.3794 145.5961 106.6431 C 145.8414 107.4834 146.7356 108.8494 147.4535 109.4807 C 147.6268 109.6331 148.0796 110.0608 148.4592 110.4309 C 149.3564 111.3052 149.5402 111.6636 149.5402 112.5415 C 149.5402 113.0813 149.5114 113.2261 149.3318 113.5854 C 148.7739 114.7026 147.5759 115.3384 146.0215 115.342 C 144.4011 115.3455 141.5074 114.6301 139.0109 113.6086 C 138.5674 113.4272 138.1527 113.2788 138.0897 113.2788 C 138.0265 113.2788 137.8113 113.4258 137.6112 113.6052 C 137.1289 114.0386 136.4512 114.2725 135.8613 114.2092 C 134.9468 114.1116 135.0333 114.085 134.7957 114.5322 C 134.6016 114.8972 134.5841 114.9868 134.6199 115.4287 C 134.6415 115.6987 134.7408 116.1467 134.8406 116.4241 C 135.5842 118.4912 135.5511 118.3699 135.5529 119.0671 C 135.5548 119.8606 135.4827 120.146 135.1866 120.5139 C 135.0642 120.666 134.9641 120.8201 134.9641 120.8562 C 134.9641 121.0271 135.609 121.4224 136.1007 121.553 C 136.7736 121.7317 137.5438 122.0854 140.7208 123.6743 C 141.1876 123.9077 141.885 124.209 142.2708 124.344 C 142.9235 124.5723 143.0352 124.5889 143.8942 124.5864 C 145.1523 124.583 145.4719 124.4734 148.7913 122.9077 C 149.2723 122.6807 149.6766 122.4951 149.6896 122.4951 C 149.7886 122.4951 152.6812 120.6553 153.6235 119.9929 C 154.0023 119.7268 154.3855 119.459 154.4751 119.3982 C 154.5649 119.3374 154.7529 119.2024 154.8936 119.0977 C 157.3248 117.2893 158.8467 116.2678 160.4628 115.3604 C 161.1934 114.9502 162.0763 114.533 162.2175 114.531 C 162.2673 114.5305 162.5734 114.4617 162.8982 114.3782 C 163.2229 114.2947 163.7531 114.1875 164.0762 114.1396 L 164.6636 114.053 L 164.6797 112.2834 C 164.7069 109.2998 164.9363 108.3088 165.9521 106.7859 C 166.3401 106.2043 166.6755 105.8354 167.6168 104.9541 L 168.2001 104.408 L 168.0072 104.2424 C 167.9012 104.1514 167.7533 104.032 167.679 103.9773 C 167.4923 103.8408 166.6926 102.8442 166.4453 102.4406 C 166.1143 101.8998 165.0719 101.0143 164.3744 100.681 C 163.582 100.3024 162.4141 100.0472 160.9756 99.93848 C 159.5172 99.82825 158.5201 99.84155 157.7572 99.98083 C 157.0093 100.1174 156.7787 100.0681 156.7194 99.75818 C 156.6323 99.30347 157.1129 98.75623 158.6505 97.56006 C 159.5435 96.86536 160.5487 95.89783 160.9023 95.39233 C 161.0856 95.13049 161.4539 94.5271 161.7207 94.052 C 162.8047 92.1217 163.527 91.05176 164.5811 89.8147 L 164.9423 89.39111 L 164.7401 89.04065 C 164.6289 88.8479 164.4276 88.53394 164.2924 88.34302 C 163.9302 87.83118 163.6934 87.34473 163.5654 86.84985 C 163.4161 86.27332 163.4219 86.08447 163.6024 85.60242 C 163.9775 84.60046 164.4379 84.40454 167.6796 83.86536 C 168.3608 83.75208 168.9366 83.64087 168.9591 83.61841 C 169.0148 83.56274 168.839 82.76624 168.7164 82.51904 C 168.5989 82.28149 168.5887 81.91541 168.694 81.71875 C 168.8679 81.39392 169.1716 81.32507 170.3893 81.33289 C 174.3243 81.35864 175.1198 81.34802 176.1826 81.25598 C 176.8319 81.19983 178.2935 81.14954 179.4301 81.14404 C 180.5667 81.13843 182.0695 81.08545 182.7701 81.02625 C 184.4359 80.88538 185.5167 80.99097 186.7826 81.41858 C 188.2325 81.90808 188.473 82.19897 188.2223 83.15845 C 188.1592 83.39941 188.1207 83.6095 188.1364 83.62512 C 188.1521 83.64087 188.468 83.61426 188.8384 83.56616 C 189.6573 83.45972 190.215 83.51367 191.0947 83.78418 C 192.1041 84.09448 192.4963 84.32812 192.7161 84.75 C 192.8405 84.98889 192.7086 85.30786 192.1675 86.07776 C 191.9608 86.37158 191.7919 86.68201 191.7919 86.76758 C 191.7919 86.95947 192.385 87.33093 192.9646 87.50208 C 193.4584 87.64771 194.2307 87.95312 194.6702 88.17651 C 195.3754 88.53503 195.9185 89.18286 195.923 89.67078 C 195.9255 89.93372 195.7233 90.26135 195.4807 90.38672 C 195.1923 90.53577 195.203 90.61121 195.5374 90.78406 C 196.2073 91.13025 197.7554 92.78967 198.3414 93.78967 C 198.4325 93.94519 198.6771 94.35461 198.8849 94.69922 C 199.4073 95.56653 200.0317 96.76074 200.0863 96.99805 C 200.147 97.26147 200.0328 97.53894 199.8019 97.69019 C 199.6982 97.75818 199.157 97.89001 198.5992 97.98328 C 197.0602 98.2406 196.3115 98.42102 195.549 98.71838 C 195.1672 98.86707 194.6223 99.07544 194.3381 99.18127 C 193.9371 99.33057 191.4203 100.5623 190.5679 101.0266 C 190.4901 101.069 190.1609 101.2299 189.8361 101.3843 C 189.5114 101.5388 189.0698 101.7753 188.855 101.9098 L 188.4646 102.1542 L 188.8048 102.4989 C 189.1989 102.8979 189.6696 103.8057 189.845 104.5051 C 190.0469 105.3093 189.9594 106.4102 189.6123 107.4333 L 189.332 108.2603 L 189.6643 108.908 C 190.0905 109.7385 190.1682 110.0693 190.1678 111.0442 C 190.1672 112.1077 190.0773 112.6077 189.7557 113.332 L 189.4869 113.9382 L 189.7942 114.3049 C 189.9634 114.5066 190.1906 114.8809 190.2993 115.1365 C 190.4778 115.5564 190.4971 115.6904 190.4987 116.5229 C 190.5001 117.2988 190.4729 117.5261 190.3264 117.9607 C 190.076 118.7034 189.6373 119.3958 189.0433 119.9856 C 188.4323 120.5925 188.4329 120.5796 188.9454 121.6082 C 189.306 122.332 189.6379 122.8394 190.2727 123.6377 C 190.4984 123.9216 190.8702 124.4277 191.099 124.7625 C 192.0591 126.1675 191.6884 126.6174 188.4338 127.9978 C 187.3802 128.4446 185.9562 128.8547 185.0389 128.9753 C 184.2301 129.0818 181.8152 129.261 179.9465 129.3533 C 179.0942 129.3955 178.1974 129.4771 177.9539 129.5352 C 177.7106 129.593 177.0295 129.6812 176.441 129.731 L 175.3707 129.8213 L 175.0017 130.2522 C 174.3826 130.9753 174.0079 131.4341 173.6902 131.8586 C 173.5232 132.0815 172.621 133.0281 171.6852 133.9612 C 170.7491 134.8945 169.5516 136.1084 169.0238 136.6582 C 168.496 137.2083 167.8802 137.7954 167.6552 137.9631 C 166.9224 138.5093 165.4822 139.1484 163.9684 139.5994 C 162.6466 139.9932 162.0525 140.1838 160.8688 140.5933 C 160.2395 140.811 159.1433 141.1775 158.4331 141.408 C 157.7229 141.6382 156.9423 141.9104 156.6987 142.0132 C 155.936 142.335 154.9535 142.6111 154.2633 142.6978 C 153.8979 142.7437 153.3832 142.8132 153.1194 142.8523 C 152.3508 142.9661 149.2589 143.0168 148.3962 142.9299 C 147.9701 142.8872 147.0569 142.7998 146.3667 142.7358 C 145.6766 142.6721 144.7966 142.5869 144.411 142.5464 C 144.0253 142.5059 143.1414 142.4233 142.4468 142.3628 C 140.7803 142.2175 140.3613 142.1587 139.1342 141.8953 C 138.0405 141.6606 137.2778 141.4238 136.7339 141.1499 C 136.3381 140.9502 135.5355 140.3186 134.9319 139.7314 C 134.6909 139.4971 134.4701 139.3054 134.4414 139.3054 C 134.4128 139.3054 134.3663 139.6123 134.3384 139.9873 C 134.1979 141.873 133.7811 144.2522 133.3706 145.512 C 133.3087 145.7019 133.113 146.4482 132.9358 147.1709 C 132.4851 149.0081 131.8468 151.498 131.5695 152.5027 C 131.1562 153.998 130.8508 155.1819 130.7609 155.6362 C 130.7128 155.8796 130.5925 156.3772 130.4938 156.7422 C 129.9648 158.6985 129.7887 159.332 129.5402 160.1707 C 129.3899 160.6775 129.1006 161.6895 128.8972 162.4192 C 128.694 163.1492 128.5105 163.8049 128.4897 163.8762 C 128.4431 164.0361 128.2268 164.0952 127.7994 164.0647 L 127.4731 164.0415 L 127.4912 163.7466 C 127.5012 163.5842 127.5756 163.1033 127.6565 162.6775 C 127.8119 161.8601 128.0833 160.2815 128.3218 158.8066 C 128.5198 157.583 129.15 154.7832 129.5253 153.4612 C 129.9355 152.0149 130.5613 149.7678 130.7159 149.1848 C 130.807 148.8401 131.0074 148.1433 131.1609 147.6365 C 131.3143 147.1296 131.499 146.4993 131.5715 146.2356 C 131.6439 145.9722 131.8074 145.4744 131.9349 145.1296 C 132.0625 144.7849 132.3477 143.9556 132.5691 143.2866 C 132.9315 142.1897 133.0848 141.6133 133.6763 139.1211 C 133.7725 138.7156 133.8875 138.1018 133.9319 137.7571 C 134.0583 136.7771 134.0551 136.7859 134.2841 136.8123 L 134.4844 136.8354 L 134.4672 137.6465 L 134.4501 138.4575 L 134.91 138.7349 C 136.3114 139.5801 137.7975 140.1274 138.9554 140.2249 C 139.2972 140.2534 139.7261 140.3096 139.9088 140.3491 C 140.3491 140.4448 141.8866 140.6079 142.8978 140.6665 C 143.3442 140.6924 144.1082 140.7607 144.5953 140.8181 C 145.0824 140.8757 145.8629 140.9563 146.3298 140.9973 C 146.7966 141.0386 147.5935 141.1106 148.101 141.1572 C 149.6543 141.2998 152.4257 141.2239 154.0548 140.9939 C 154.3459 140.9529 154.9105 140.8 155.3094 140.6543 C 155.7083 140.5085 156.782 140.1423 157.6951 139.8401 C 158.6084 139.5381 159.804 139.1282 160.3521 138.9299 C 160.9001 138.7314 162.0264 138.3677 162.8552 138.1211 C 164.5885 137.6057 166.0107 137.0183 166.6129 136.5688 C 166.843 136.3972 167.3466 135.9241 167.7323 135.5171 C 169.0005 134.1794 170.3385 132.8635 171.201 132.1057 C 171.6678 131.6956 172.3652 131.0715 172.751 130.7188 C 173.1366 130.366 173.5918 129.9888 173.7627 129.8806 C 173.9336 129.7722 174.0647 129.6541 174.0544 129.6182 C 174.0439 129.582 173.9042 129.4993 173.7438 129.4338 C 173.2986 129.2524 173.0703 129.073 172.9418 128.802 C 172.7837 128.4688 172.7947 128.1609 172.9789 127.7693 C 173.0636 127.5891 173.1116 127.407 173.0851 127.3645 C 173.0588 127.3223 172.9198 127.2874 172.7761 127.2874 C 172.5773 127.2874 172.4547 127.2275 172.2638 127.0366 C 172.0219 126.7949 172.0127 126.7659 172.0127 126.2178 C 172.0127 125.7061 172.0002 125.6548 171.8838 125.7017 C 171.6119 125.811 171.1948 125.8281 170.9786 125.7385 C 170.5828 125.5747 170.4631 125.3438 170.4631 124.7429 L 170.4631 124.2092 L 169.8911 123.8169 C 168.8015 123.0696 167.0542 121.1108 166.3441 119.8408 C 165.7881 118.8459 165.0709 116.7217 164.8973 115.5557 C 164.8433 115.1924 164.7791 114.8752 164.7548 114.8508 C 164.6805 114.7766 164.0573 114.9832 163.9294 115.1243 C 163.7623 115.3088 163.5383 116.2058 163.4515 117.0391 C 163.4113 117.4243 163.3291 118.1873 163.2689 118.7349 C 163.1307 119.99 163.1249 121.6692 163.2568 122.1636 C 163.4813 123.0059 164.0919 124.0356 164.7457 124.6748 C 166.1179 126.0161 167.5225 126.7585 170.1863 127.5508 C 170.793 127.7314 171.0164 127.8772 170.6858 127.8772 C 170.1228 127.8772 168.0225 127.3672 167.5233 127.1094 C 167.3987 127.0452 167.252 126.9924 167.1969 126.9924 C 167.0076 126.9924 165.8685 126.3987 165.1962 125.9492 C 163.5221 124.8306 162.6715 123.834 162.1537 122.3843 C 161.9724 121.877 161.9707 119.7676 162.1508 118.9561 C 162.2184 118.6519 162.3533 117.9719 162.4506 117.4446 C 162.548 116.9175 162.6802 116.3408 162.7444 116.1633 C 162.8778 115.7954 162.8949 115.5645 162.7885 115.5645 C 162.7482 115.5645 162.358 115.8079 161.9213 116.1055 C 160.4176 117.1296 159.9575 117.4629 157.2155 119.5134 C 155.1482 121.0593 153.7936 122.0071 152.4713 122.8323 C 152.2163 122.9915 151.8145 123.2429 151.5781 123.3906 C 150.0365 124.356 147.5192 125.4502 145.8265 125.8904 C 145.1132 126.0762 144.8541 126.1077 144.0498 126.1077 C 143.2665 126.1077 143.0077 126.0776 142.5093 125.9287 C 141.7831 125.7117 141.1062 125.3789 140.2332 124.8103 C 139.0869 124.0637 136.668 122.7036 136.5813 122.7571 C 136.552 122.7751 136.6421 123.0137 136.7815 123.2876 C 137.2174 124.1443 137.4609 124.9436 137.619 126.0376 C 137.8046 127.3218 137.8047 127.8013 137.621 129.415 C 137.5139 130.354 137.3667 131.1296 137.0671 132.3274 C 136.6052 134.1753 136.3665 134.7583 136.057 134.7939 C 135.897 134.8123 135.8346 134.771 135.7367 134.582 C 135.468 134.063 134.7357 133.0774 134.2039 132.5186 C 133.5227 131.8032 132.9141 131.4758 132.1775 131.4287 C 131.5748 131.3901 131.1802 131.4951 130.2502 131.9426 C 129.5596 132.2749 129.4076 132.3877 128.6902 133.0986 L 127.8954 133.8862 L 127.8536 134.3655 C 127.8021 134.9575 127.5031 136.531 127.2096 137.7571 C 127.0881 138.2639 126.941 138.8777 126.8826 139.1211 C 126.5183 140.6396 126.3951 141.1646 126.3036 141.5908 C 126.2469 141.8545 126.0603 142.6008 125.8885 143.2498 C 125.7169 143.8987 125.5342 144.5952 125.4821 144.7979 C 125.4299 145.0007 125.2375 145.6973 125.0542 146.3462 C 124.871 146.9951 124.6328 147.9241 124.5255 148.4109 C 124.0857 150.4026 123.771 151.5999 123.3427 152.9082 C 123.2498 153.1921 123.0502 153.8391 122.8992 154.3459 C 122.7482 154.8528 122.5619 155.4336 122.4852 155.6362 C 122.4087 155.8391 122.2324 156.3037 122.0938 156.6685 C 121.3981 158.498 120.9937 159.9004 120.4558 162.3457 C 120.3489 162.8323 120.2069 163.4128 120.1403 163.6357 L 120.019 164.0415 L 119.6582 164.0642 C 119.4597 164.0769 119.2677 164.0574 119.2313 164.021 C 119.1613 163.9509 119.4645 162.4844 119.7999 161.271 C 119.9796 160.6206 120.0735 160.3506 120.4982 159.2612 C 120.8584 158.3374 121.681 155.4966 122.2317 153.2769 C 122.6794 151.4714 122.9458 150.2019 123.3031 148.1697 C 123.4618 147.2664 123.6558 146.2878 123.7339 145.9946 C 123.812 145.7014 123.9771 145.0305 124.1008 144.5032 C 124.2246 143.9761 124.38 143.3123 124.4465 143.0283 C 124.5132 142.7446 124.7299 141.7329 124.9279 140.78 C 125.1259 139.8269 125.4072 138.4998 125.5526 137.8308 C 125.8961 136.252 126.262 133.7727 126.3684 132.301 C 126.4427 131.2761 126.7664 129.146 126.9655 128.374 C 127.1635 127.6064 127.171 127.3083 126.9917 127.3491 C 126.618 127.4341 124.6787 127.4836 123.8224 127.4299 C 121.8026 127.3037 120.2711 126.8679 118.0264 125.7803 C 116.1174 124.8552 114.8943 123.8621 113.958 122.4778 C 113.7557 122.1787 113.514 121.7466 113.4209 121.5171 C 113.3276 121.2876 113.2096 121.0654 113.1586 121.0229 C 113.0583 120.9399 112.9984 121.0715 112.4554 122.5686 C 112.301 122.9944 112.028 123.7078 111.8485 124.1538 C 111.1133 125.9827 110.8582 126.8044 110.6456 128.0281 C 110.5797 128.4077 110.5134 128.7383 110.4983 128.7625 C 110.4833 128.7869 110.386 129.2197 110.2822 129.7244 C 109.8235 131.9539 109.4846 133.4324 109.244 134.2549 C 109.1847 134.4578 109.0386 135.0051 108.9193 135.4714 C 108.723 136.2388 108.5876 136.8779 108.1093 139.3054 C 107.8977 140.3782 107.6106 142.3213 107.1067 146.0884 C 107.001 146.8792 106.8853 147.6421 106.8494 147.7839 C 106.8135 147.926 106.7456 148.3408 106.6982 148.7056 C 106.6509 149.0706 106.5347 149.8835 106.4398 150.5122 C 106.345 151.1406 106.1797 152.3186 106.0726 153.1294 C 105.9653 153.9404 105.8298 154.9524 105.7709 155.3782 C 105.4763 157.5068 105.2661 160.9016 105.3076 162.8618 L 105.3325 164.0415 L 105.1418 164.0637 C 105.0369 164.0759 104.9163 164.0425 104.8743 163.9897 Z M 135.7856 132.502 C 135.816 132.0063 135.8973 130.854 135.9664 129.9417 C 136.1134 128.0017 136.1125 126.3394 135.9637 125.4072 C 135.8516 124.7048 135.5292 123.4604 135.3939 123.2078 C 135.3495 123.125 135.2379 122.8137 135.1461 122.5161 C 134.9973 122.0344 134.4596 121.1677 134.3093 121.1677 C 134.2836 121.1677 134.0465 121.2302 133.783 121.3062 C 132.4055 121.7034 131.7522 122.2776 130.4874 124.2041 C 129.9996 124.947 129.4583 125.7959 129.2843 126.0903 C 129.1102 126.385 128.8702 126.708 128.751 126.8083 C 128.5072 127.0132 128.5284 126.9109 128.3263 128.8726 C 128.0853 131.2112 128.0161 132.0767 128.0635 132.1531 C 128.0883 132.1934 128.3077 132.0605 128.5514 131.8579 C 129.0416 131.4502 129.1823 131.3677 130.0931 130.9524 C 131.5647 130.2815 133.002 130.3936 134.0559 131.2615 C 134.3942 131.5398 135.1512 132.5422 135.4177 133.0642 C 135.5389 133.3015 135.6587 133.4749 135.6843 133.4495 C 135.7098 133.4238 135.7554 132.9976 135.7856 132.502 Z M 109.0663 127.9829 C 109.4803 126.1445 109.743 125.4397 110.9061 123.0481 C 111.5813 121.6597 112.1149 120.658 112.5255 120.0088 C 112.7684 119.6248 112.7692 119.6216 112.7808 118.6079 C 112.7946 117.4395 112.9602 116.7097 113.4893 115.4907 C 114.2075 113.8364 114.692 112.4678 114.5601 112.4678 C 114.3593 112.4678 112.5709 113.3381 111.7554 113.8328 C 109.2325 115.3628 106.3392 118.5461 104.2839 122.0525 C 103.6702 123.0996 101.5425 126.8784 101.4907 127.0134 C 101.422 127.1924 101.4929 127.1746 102.0234 126.8779 C 102.7236 126.4868 103.26 126.3257 104.0223 126.2778 C 105.0851 126.2114 106.1047 126.5137 107.024 127.1682 C 107.4984 127.5061 108.4546 128.4473 108.5916 128.7114 C 108.6506 128.8254 108.7372 128.9062 108.7837 128.8909 C 108.8301 128.8752 108.9574 128.4668 109.0663 127.9829 Z M 176.4039 128.6111 C 176.7693 128.5691 177.2972 128.4846 177.5767 128.4238 C 178.2955 128.2673 179.7059 128.0999 180.3156 128.0984 C 180.5996 128.0979 181.1144 128.0659 181.4595 128.0273 C 181.8044 127.989 182.585 127.9216 183.1938 127.8779 C 183.8027 127.8345 184.5288 127.7659 184.8073 127.7256 C 185.5715 127.6147 186.859 127.2373 187.7097 126.8743 C 188.1274 126.696 188.4908 126.5503 188.5173 126.5503 C 188.5437 126.5503 188.7017 126.4854 188.8684 126.4062 C 189.0353 126.3271 189.4297 126.1467 189.7445 126.0054 C 190.0594 125.8638 190.3368 125.6963 190.3612 125.6328 C 190.4176 125.4858 190.229 125.0144 189.8873 124.4492 C 189.3706 123.5945 189.3828 123.5986 189.337 124.2646 C 189.3043 124.741 189.2531 124.9265 189.0573 125.2751 C 188.9254 125.51 188.7478 125.7808 188.6626 125.8767 C 188.4215 126.1487 187.5597 126.501 186.5887 126.7249 C 185.4489 126.9878 184.7925 127.1506 183.7648 127.4258 C 183.0082 127.6284 182.5127 127.708 180.98 127.8745 C 180.2935 127.9492 176.4373 127.7615 175.5923 127.6121 C 174.4644 127.4131 173.9019 127.3643 173.8408 127.46 C 173.8108 127.5071 173.7859 127.7185 173.7853 127.9299 C 173.7839 128.4009 173.8336 128.4351 174.7262 128.5737 C 175.549 128.7019 175.6084 128.7031 176.4039 128.6111 Z M 181.8655 126.876 C 183.0118 126.6909 183.4944 126.5664 185.1497 126.03 C 185.4135 125.9446 185.7622 125.8455 185.9247 125.8098 C 186.1594 125.7585 186.1108 125.7522 185.6892 125.7791 C 185.3975 125.7981 185.0757 125.8447 184.9741 125.8833 C 184.4746 126.073 183.2587 126.1318 181.6744 126.043 C 180.0551 125.9524 179.6835 125.9019 178.2122 125.5701 C 176.2909 125.1372 173.7059 124.9514 173.3787 125.2227 C 173.2981 125.2893 173.2675 125.4641 173.2675 125.856 L 173.2675 126.397 L 173.5442 126.4629 C 174.2783 126.6379 176.7939 126.897 178.6182 126.9854 C 180.1177 127.0581 180.9023 127.0317 181.8655 126.876 Z M 127.2136 125.5293 C 127.5577 125.4465 127.8501 125.3469 127.8632 125.3076 C 127.8761 125.2686 127.9803 125.0925 128.0946 124.9165 C 128.2089 124.7402 128.5208 124.2478 128.7878 123.822 C 129.8473 122.134 130.1351 121.7251 130.5667 121.2964 C 131.4987 120.3708 132.2014 119.9792 133.5237 119.6482 C 134.4757 119.4099 134.5671 119.3196 134.4927 118.688 C 134.4663 118.4622 134.3175 117.9556 134.1625 117.563 C 133.5536 116.0208 133.4846 115.1531 133.9155 114.4607 C 134.0458 114.2512 134.1522 114.0688 134.1522 114.0549 C 134.1522 114.0413 133.8719 114.0269 133.5291 114.0232 C 133.1055 114.0186 132.8873 114.0461 132.8477 114.1084 C 132.6479 114.4226 132.1252 116.1797 132.1852 116.3357 C 132.2052 116.3879 132.3723 116.4531 132.5565 116.4807 C 132.7407 116.5085 132.9667 116.5923 133.059 116.6665 C 133.203 116.7832 133.2162 116.8323 133.1519 117.0129 C 133.0615 117.2664 132.9056 117.2759 131.9014 117.0891 C 131.0742 116.9355 129.8628 116.9309 128.76 117.0771 C 125.7507 117.4766 122.5623 117.1016 120.9031 116.1533 C 120.1362 115.7148 119.26 114.6226 119.0533 113.8474 C 118.5228 111.8564 120.005 109.834 122.5269 109.1084 C 123.8854 108.7175 125.7242 108.6191 127.1035 108.8635 C 127.9453 109.0125 132.0625 110.1179 133.9309 110.6968 C 134.1947 110.7783 134.8757 110.9773 135.444 111.1387 C 136.4164 111.4146 137.9711 111.9375 139.3923 112.4666 C 140.8878 113.0232 142.9336 113.5308 144.6322 113.7671 C 145.6071 113.9028 146.6226 113.8691 147.1556 113.6833 C 147.6326 113.5173 148.1384 113.03 148.2439 112.6353 C 148.3668 112.175 148.2036 111.9246 147.0448 110.7957 C 145.9607 109.74 145.6162 109.3225 145.1543 108.5059 C 144.6143 107.5515 144.3447 106.7017 144.3396 105.9351 L 144.337 105.5588 L 143.4698 105.5154 C 142.8138 105.4822 142.3511 105.406 141.5696 105.2024 C 141.0013 105.0542 140.2208 104.8711 139.8351 104.7957 C 138.5095 104.5359 138.1033 104.4038 138.077 104.2236 C 138.0631 104.1289 138.1006 104.0439 138.1672 104.0183 C 138.2297 103.9944 138.8882 104.0525 139.6301 104.1477 C 140.6414 104.2773 141.3395 104.3206 142.4183 104.3203 C 143.7142 104.3201 143.9091 104.3035 144.3763 104.1521 C 145.0099 103.947 145.4645 103.6553 145.7894 103.2451 C 146.4034 102.4702 146.2786 101.7896 145.3901 101.066 C 144.8135 100.5966 144.2928 100.4642 142.5297 100.3391 C 141.0763 100.236 140.3203 100.1095 139.9199 99.90271 C 139.6199 99.7478 139.1339 99.19116 138.9072 98.74255 C 138.5129 97.96277 138.0172 97.33496 137.5756 97.05615 C 137.449 96.97632 137.3282 96.91089 137.3075 96.91089 C 137.2867 96.91089 137.1158 97.18481 136.9277 97.51978 C 136.5782 98.1416 135.7242 99.33057 135.307 99.77625 C 134.7264 100.396 133.7892 100.9679 132.787 101.3141 C 132.1766 101.5248 131.8766 101.5815 131.0526 101.6418 C 129.4868 101.7562 128.7603 101.6537 127.7686 101.1791 C 126.1467 100.4027 124.9403 98.89673 124.6998 97.34839 C 124.65 97.02783 124.6287 96.31824 124.6476 95.62268 C 124.6792 94.4696 124.6873 94.42078 124.9783 93.59326 C 125.775 91.32715 126.7175 90.24573 128.1621 89.9397 C 129.1544 89.72961 130.7476 89.86621 132.1595 90.28284 C 132.5858 90.40869 132.9678 90.53699 133.0083 90.56799 C 133.0488 90.59912 133.2646 90.68335 133.488 90.75525 C 133.9523 90.90466 134.7924 91.33325 135.3639 91.71228 C 135.5786 91.85461 135.7932 91.97107 135.8407 91.97107 C 135.9944 91.97107 136.0879 91.58093 136.098 90.896 C 136.1075 90.26074 136.0958 90.20679 135.8682 89.84058 C 135.6221 89.44421 135.5778 89.28308 135.6957 89.21045 C 135.8221 89.13232 135.9789 89.2522 136.3473 89.70825 C 136.7526 90.20984 136.7985 90.31421 136.9146 91.00244 L 136.9939 91.47144 L 137.4324 91.05017 C 138.1499 90.36145 139.1453 89.74805 139.8721 89.54688 C 140.5179 89.36804 141.9717 89.48218 142.6908 89.76807 C 142.9015 89.85193 143.106 89.90076 143.145 89.87671 C 143.2465 89.81409 143.1714 89.30286 142.9573 88.59534 C 142.7336 87.85645 142.4348 87.51501 141.4087 86.82593 C 141.0361 86.57581 140.6791 86.29675 140.6154 86.20557 C 140.527 86.07971 140.4993 85.84827 140.4993 85.2417 L 140.4993 84.44324 L 140.2224 84.33069 C 139.8289 84.17078 139.4285 83.98511 138.2114 83.39783 C 136.8818 82.7561 136.3713 82.53906 135.1117 82.07935 C 134.5638 81.87939 134.0157 81.67126 133.894 81.61694 C 133.7722 81.5625 133.5957 81.49487 133.5017 81.46643 C 133.408 81.43811 132.9927 81.25525 132.5792 81.06006 C 131.6487 80.62097 131.3652 80.50037 130.7574 80.28369 C 130.4937 80.18982 129.8956 79.96594 129.4288 79.78687 C 128.962 79.60767 128.2316 79.35315 127.8054 79.22107 C 127.3793 79.08911 126.8977 78.93579 126.7352 78.88049 C 126.3641 78.75391 124.5765 78.41736 123.7462 78.31763 C 122.9552 78.22266 121.1716 78.28577 120.3569 78.43774 C 120.015 78.50146 119.7198 78.56885 119.7012 78.5874 C 119.6371 78.65137 119.9329 79.02637 120.5724 79.6925 C 121.8318 81.00366 122.8242 82.56873 123.1337 83.73132 C 123.3563 84.56775 123.2283 86.05444 122.9166 86.24915 C 122.8085 86.31665 122.7041 86.24365 122.2562 85.78931 C 121.443 84.96375 121.0602 84.81128 119.4657 84.67664 C 118.9989 84.63721 118.3267 84.54785 117.9718 84.47803 C 117.6168 84.40833 117.3031 84.37476 117.2742 84.40369 C 117.2454 84.4325 117.7048 84.94409 118.295 85.54089 C 119.6582 86.91907 119.8695 87.19653 120.4888 88.42249 C 121.6371 90.69653 122.1886 93.25037 122.0985 95.87781 C 122.0397 97.59399 121.8685 98.53345 121.4647 99.3595 C 121.0881 100.1294 120.9565 100.2627 120.6296 100.2083 C 120.1492 100.1281 119.9822 100.0194 119.8417 99.69531 C 119.0657 97.90662 117.8904 95.92957 117.2438 95.32556 C 116.0923 94.24939 114.5068 94.45605 113.7917 95.77502 C 113.1205 97.01318 112.9592 98.21326 113.2985 99.44495 C 113.6735 100.8068 114.34 101.7538 115.2303 102.1906 C 115.6274 102.3854 115.7445 102.4059 116.5873 102.4269 L 117.5099 102.45 L 118.1334 102.1461 C 118.8174 101.8125 119.0634 101.8025 119.1393 102.1053 C 119.1703 102.2285 119.1099 102.4229 118.9446 102.7329 C 118.7028 103.1863 118.3654 103.4868 117.7488 103.7988 C 117.5621 103.8933 117.4821 103.9778 117.5049 104.0564 C 117.8434 105.2168 117.8584 106.498 117.5513 108.02 C 117.123 110.1423 116.7333 111.7019 116.3015 113.0208 C 116.0497 113.7903 115.3481 115.6379 115.266 115.7476 C 115.1505 115.9019 114.744 117.0198 114.6356 117.4812 C 114.4819 118.1355 114.4922 119.0918 114.6603 119.7668 C 114.921 120.8149 115.3368 121.563 116.0896 122.3396 C 117.2111 123.4963 118.6211 124.3027 120.9786 125.1357 C 121.3445 125.2649 122.4762 125.5359 123.3035 125.6921 C 123.4048 125.7112 124.1853 125.7166 125.0377 125.7036 C 126.2854 125.6846 126.7097 125.6506 127.2136 125.5293 Z M 186.7671 125.6226 C 186.8328 125.5569 186.7267 125.5369 186.4973 125.5718 C 186.3658 125.5918 186.278 125.6404 186.3024 125.6797 C 186.3418 125.7434 186.6886 125.7009 186.7671 125.6226 Z M 187.0869 125.4692 C 187.036 125.4487 186.9534 125.4487 186.9026 125.4692 C 186.8517 125.4895 186.8933 125.5063 186.9948 125.5063 C 187.0961 125.5063 187.1377 125.4895 187.0869 125.4692 Z M 188.0886 125.053 C 188.1423 125.01 188.2517 124.8472 188.3317 124.6904 C 188.4722 124.415 188.4727 124.3918 188.3499 123.9543 C 188.2115 123.4622 188.1168 123.5112 188.1068 124.0806 C 188.0995 124.4961 187.986 124.8479 187.7899 125.0598 L 187.6219 125.2415 L 187.8065 125.1863 C 187.908 125.156 188.0348 125.0959 188.0886 125.053 Z M 184.6699 124.5967 C 185.8636 124.4612 187.0144 124.2749 187.0809 124.2061 C 187.2301 124.0515 187.3767 121.5002 187.2439 121.3677 C 187.2185 121.3428 187.0713 121.3862 186.9167 121.4648 C 186.4136 121.7214 185.4261 122.0537 184.5593 122.2581 C 183.8243 122.4312 183.5619 122.4573 182.6034 122.4526 C 181.5974 122.4478 181.4464 122.4292 180.9506 122.2507 C 179.9569 121.8928 179.4951 121.4963 179.1196 120.6765 C 178.9495 120.3052 178.9347 120.2014 178.9701 119.6287 C 178.9916 119.2791 179.0623 118.8694 179.1273 118.7188 C 179.2876 118.3464 179.2853 118.3384 178.9547 118.1199 C 178.5133 117.8281 177.7809 117.0469 177.5609 116.6335 C 177.3926 116.3169 177.366 116.1814 177.373 115.675 C 177.3882 114.6045 177.8401 113.6697 178.856 112.6074 L 179.3967 112.042 L 179.1244 111.8816 C 178.8691 111.7312 178.8198 111.7271 178.3293 111.8093 C 177.3513 111.9741 175.6051 111.741 174.7228 111.3276 C 174.4297 111.1904 174.0593 110.9575 173.9001 110.8101 C 173.6338 110.5637 173.6039 110.553 173.5317 110.6753 C 173.4832 110.7576 173.4354 111.7534 173.4062 113.2788 C 173.3802 114.6372 173.3207 115.948 173.2738 116.1912 C 173.1646 116.7573 172.9335 117.7329 172.7411 118.4399 C 172.2314 120.312 171.8571 122.1738 171.7184 123.5273 C 171.6046 124.6362 171.5909 124.6143 172.2098 124.3108 C 173.3661 123.7441 174.9648 123.647 177.2891 124.0017 C 178.0192 124.1133 178.7498 124.2483 178.9126 124.302 C 179.483 124.4897 180.0966 124.5764 181.2344 124.6301 C 183.0863 124.7173 183.6549 124.7117 184.6699 124.5967 Z M 170.8271 122.1448 C 171.0978 120.8625 171.4033 119.6416 171.6801 118.7349 C 171.9165 117.96 172.226 116.7864 172.3892 116.0437 C 172.4249 115.8816 172.4858 115.0354 172.5247 114.1636 C 172.609 112.2678 172.6835 111.7124 172.9868 110.7192 L 173.2169 109.9661 L 173.0208 109.6702 C 172.8102 109.3525 172.771 109.0857 172.9133 108.9436 C 173.061 108.7959 173.1844 108.8408 173.5472 109.1741 C 174.3857 109.9436 175.676 110.4033 176.9988 110.4033 C 177.6913 110.4033 177.839 110.3787 178.3806 110.1709 C 179.8417 109.6108 180.4473 108.832 180.2053 107.8245 C 180.0225 107.0635 179.2528 106.4832 177.151 105.5215 C 175.1942 104.6262 174.8092 104.4336 174.0673 103.9778 C 173.2775 103.4929 172.7679 103.3008 172.4652 103.3735 C 171.454 103.6157 168.7251 105.7808 167.5348 107.2852 C 167.2252 107.6763 166.7838 108.5256 166.5981 109.0867 C 166.3403 109.8657 166.1852 112.9072 166.3241 114.4585 C 166.4753 116.1465 166.6202 116.8235 167.1421 118.2747 C 167.491 119.2454 167.7747 119.7334 168.6991 120.9534 C 169.2079 121.6248 170.4465 122.9373 170.5712 122.9373 C 170.6245 122.9373 170.7267 122.6206 170.8271 122.1448 Z M 184.3387 120.6257 C 186.7966 120.1016 188.3285 119.1609 189.0287 117.7451 C 189.2958 117.2053 189.3187 117.1086 189.3444 116.4141 C 189.3684 115.7649 189.3505 115.6145 189.2076 115.283 C 189.1172 115.073 189.0035 114.9009 188.9552 114.9009 C 188.907 114.9009 188.6804 115.1372 188.4519 115.4263 C 187.7314 116.3374 186.9371 116.9182 185.485 117.5959 C 183.7704 118.3965 182.4801 118.7571 181.2893 118.7686 C 180.3798 118.7773 180.3553 118.7925 180.3536 119.3455 C 180.3516 120.0217 180.6295 120.3884 181.3173 120.6167 C 182.215 120.9146 182.9736 120.9167 184.3387 120.6257 Z M 182.3564 117.0449 C 184.4161 116.6226 186.5441 115.5811 187.3698 114.5911 C 187.9023 113.9526 188.5044 113.0076 188.7034 112.4978 C 188.9791 111.7913 189.0643 110.6313 188.8856 110.0173 C 188.8188 109.7876 188.7384 109.584 188.707 109.5647 C 188.6757 109.5452 188.4933 109.7251 188.3016 109.9646 C 187.6 110.8403 186.1334 111.7949 184.8175 112.2324 C 184.0725 112.48 183.1454 112.5657 181.7787 112.5137 C 181.0957 112.4875 180.472 112.4651 180.3928 112.4636 C 180.1167 112.4587 179.3849 113.4504 179.0962 114.2217 C 178.9301 114.6653 178.8291 115.4417 178.9011 115.7227 C 178.9548 115.9321 179.4768 116.4802 179.8425 116.7112 C 180.1541 116.908 181.0127 117.1658 181.397 117.178 C 181.5454 117.1826 181.9771 117.1228 182.3564 117.0449 Z M 126.6984 116.116 C 126.6984 116.0542 126.4525 115.7478 126.1521 115.4348 C 125.537 114.7937 125.7327 114.8489 124.2936 114.9116 C 123.6354 114.9407 123.4894 114.876 122.8264 114.2646 C 122.3394 113.8157 122.0524 113.7246 121.1122 113.7229 C 120.5978 113.7217 120.2677 113.7512 120.2368 113.801 C 120.1725 113.905 120.6577 114.606 121.021 114.9338 C 121.7826 115.6213 123.3926 116.0366 125.8496 116.1799 C 126.0526 116.1917 126.3267 116.2075 126.4585 116.2148 C 126.6298 116.2244 126.6984 116.196 126.6984 116.116 Z M 136.6246 113.3643 C 136.868 113.249 137.1091 113.1045 137.1602 113.043 C 137.2988 112.8755 136.9747 112.77 132.8977 111.6577 C 129.5852 110.7542 128.5291 110.4893 126.8459 110.1406 C 125.7352 109.9109 123.7585 110.0027 122.9142 110.3232 C 122.646 110.425 122.6599 110.4941 122.9961 110.7268 C 123.4573 111.0459 123.6729 111.0764 124.2745 110.9062 C 124.9713 110.7092 125.2493 110.7852 125.7533 111.3103 C 126.3992 111.9832 126.6614 112.0676 127.4061 111.8418 C 127.6055 111.7815 127.9509 111.7317 128.1742 111.7314 C 128.6661 111.731 128.9314 111.8765 129.4626 112.4375 C 129.9142 112.9146 130.0365 112.9312 130.76 112.614 C 131.6611 112.2188 131.8556 112.2454 132.4156 112.8408 C 132.9333 113.3914 133.2758 113.4543 134.311 113.1899 L 134.9496 113.0266 L 135.3812 113.2976 C 135.6185 113.4468 135.8961 113.5698 135.9976 113.5713 C 136.0989 113.5725 136.3811 113.4792 136.6246 113.3643 Z M 184.9874 111.0437 C 186.5195 110.5085 187.65 109.4934 188.1906 108.1667 C 188.7472 106.8 188.8235 105.3499 188.3845 104.4756 C 188.002 103.7136 187.3431 103.085 187.0464 103.199 C 186.9832 103.2231 186.7618 103.4937 186.5548 103.8003 C 185.8706 104.8132 185.4336 105.2048 184.1902 105.9189 C 182.9314 106.6421 182.1688 106.9321 181.5149 106.9363 C 181.3627 106.9373 181.238 106.9683 181.238 107.0051 C 181.238 107.042 181.3376 107.2825 181.4595 107.5396 C 181.9176 108.5071 181.6589 109.7478 180.814 110.6357 C 180.5958 110.865 180.4442 111.0676 180.4772 111.0857 C 180.51 111.1038 180.7365 111.156 180.98 111.2019 C 181.2233 111.2478 181.4891 111.301 181.5703 111.3198 C 181.6514 111.3389 182.2825 111.3442 182.9727 111.3318 C 184.1957 111.3098 184.2463 111.3025 184.9874 111.0437 Z M 181.2491 106.0845 C 181.4481 105.9817 181.4685 105.9409 181.4292 105.7314 C 181.1848 104.4299 181.2007 101.1067 181.4568 99.98328 C 181.4951 99.81421 181.58 99.4436 181.6453 99.15979 C 181.7622 98.65076 182.577 96.01599 182.7284 95.65747 C 182.8546 95.35864 183.1439 94.51648 183.5265 93.33496 C 183.9198 92.12036 184.1473 91.51611 184.6509 90.34924 C 184.8346 89.92346 185.0767 89.29297 185.1886 88.94836 C 185.3007 88.60352 185.5548 87.87366 185.7535 87.32629 C 185.9521 86.77881 186.2089 86.06555 186.3239 85.74109 C 186.439 85.41675 186.7031 84.67102 186.9111 84.08447 C 187.212 83.23596 187.2708 82.99951 187.1975 82.92859 C 187.1469 82.87939 186.6072 82.71582 185.9984 82.56482 C 184.9657 82.30884 184.8196 82.29089 183.8214 82.29626 C 183.2327 82.29944 182.5032 82.3385 182.1998 82.38306 C 181.8965 82.42737 180.5682 82.49597 179.2484 82.53479 C 177.9283 82.57361 176.4824 82.63086 176.0356 82.66174 C 175.115 82.72559 172.1428 82.73645 170.7583 82.68127 L 169.8357 82.64453 L 169.8546 82.8656 C 169.865 82.98718 169.8923 83.19861 169.915 83.33521 L 169.9564 83.5835 L 171.4829 83.51978 C 174.0327 83.41333 177.2412 83.45898 177.4783 83.60547 C 177.6581 83.71643 181.1075 84.00586 182.3082 84.01062 C 184.3661 84.01892 184.4673 84.12451 184.0732 85.85889 C 183.9681 86.32129 183.8202 86.9718 183.7448 87.30457 C 183.6078 87.90881 182.5977 90.94116 182.0922 92.26611 C 181.6747 93.36047 181.322 95.00073 180.9828 97.42834 C 180.9288 97.81433 180.842 98.98621 180.7903 100.0322 C 180.7131 101.5802 180.7131 102.3207 180.7904 104.012 C 180.8425 105.155 180.9 106.115 180.9183 106.1455 C 180.9644 106.2222 180.993 106.2168 181.2491 106.0845 Z M 179.8322 104.9055 C 179.8138 104.5027 179.8015 102.9126 179.8047 101.3716 C 179.8096 98.91748 179.8296 98.43738 179.9672 97.50085 C 180.0537 96.91296 180.1455 96.23254 180.1715 95.98926 C 180.2599 95.16223 180.6556 93.11609 180.8342 92.56104 C 180.9321 92.25684 181.1583 91.57678 181.3365 91.04956 C 181.5145 90.52246 181.7849 89.67627 181.9374 89.16943 C 182.3287 87.86694 182.5372 87.20776 182.9073 86.10132 C 183.0852 85.56958 183.2307 85.1217 183.2307 85.10608 C 183.2307 85.09033 182.7076 85.07263 182.0682 85.06665 C 180.896 85.05566 179.8744 84.97974 178.249 84.78271 C 175.8347 84.48987 175.0012 84.43384 173.7841 84.48132 C 173.1143 84.50745 171.7528 84.56042 170.7583 84.59888 C 169.7635 84.63745 168.6677 84.71814 168.3228 84.7782 C 166.3613 85.11938 165.6016 85.26453 165.3707 85.34253 C 165.0325 85.45679 164.8029 85.67041 164.707 85.96033 C 164.5975 86.2915 164.8342 87.01575 165.2993 87.77283 C 165.5009 88.10095 165.6659 88.38733 165.6659 88.40942 C 165.6659 88.43164 165.7654 88.56274 165.8872 88.70142 C 166.0089 88.84009 166.1089 88.98657 166.1089 89.02686 C 166.1089 89.06738 166.4622 89.6875 166.894 90.40503 C 167.8135 91.93237 169.049 94.34546 169.2435 94.9939 C 169.2738 95.09534 169.3441 95.27808 169.3998 95.39966 C 169.526 95.67603 170.2812 97.82715 170.4612 98.42236 C 170.5347 98.66577 170.6302 98.95447 170.6736 99.06433 C 170.8242 99.44666 170.9865 100.5675 171.0305 101.5302 L 171.075 102.4998 L 171.5624 102.3126 C 171.929 102.1719 172.1871 102.1257 172.6034 102.1261 C 173.2573 102.127 173.7762 102.3317 174.762 102.978 C 175.39 103.3899 175.8234 103.6189 177.9358 104.6555 C 178.616 104.9893 179.2966 105.3564 179.4487 105.4714 C 179.6006 105.5862 179.7567 105.6709 179.7953 105.6592 C 179.8363 105.647 179.8517 105.3352 179.8322 104.9055 Z M 183.1334 104.7207 C 183.1814 104.6223 183.2593 104.2432 183.3064 103.8782 C 183.5085 102.3153 184.2378 100.8223 186.0222 98.31714 C 187.6025 96.09851 189.1823 94.38733 191.1536 92.75696 C 191.7988 92.22339 192.4139 91.71082 192.5205 91.61768 C 192.7957 91.37769 194.0256 90.57104 194.615 90.24414 C 194.889 90.09229 195.1129 89.94275 195.1129 89.91187 C 195.1129 89.88098 195.0551 89.80579 194.9839 89.74451 C 194.7469 89.54016 193.2781 88.82312 192.8251 88.6908 C 192.4882 88.59241 191.9061 88.22388 191.6136 87.92358 C 191.455 87.76062 191.2977 87.64392 191.2644 87.66455 C 191.2311 87.68518 191.0597 87.92493 190.8831 88.19751 C 190.5862 88.65601 189.1693 90.56042 189.0627 90.64404 C 188.9844 90.70581 187.3948 92.95325 187.2899 93.15076 C 187.1823 93.35352 186.4058 94.56152 185.9457 95.24207 C 185.0883 96.5105 184.4463 97.87659 184.1569 99.04907 C 184.0917 99.31274 184.0032 99.61133 183.9598 99.71277 C 183.5564 100.658 182.881 103.6807 182.8672 104.6033 C 182.8613 104.9932 182.9758 105.0439 183.1334 104.7207 Z M 184.4445 103.8135 C 184.5815 103.6765 184.8507 103.3362 185.0426 103.0576 C 185.7684 102.0038 186.1663 101.7213 187.0399 101.6379 C 187.431 101.6006 187.6266 101.5442 187.7485 101.4338 C 188.153 101.0682 189.236 100.4115 191.1276 99.38452 C 192.1508 98.82922 192.5491 98.65649 194.7075 97.83337 C 195.5522 97.51123 196.7268 97.27478 197.7924 97.21277 C 198.3527 97.1803 198.8472 97.11731 198.8912 97.07324 C 198.9491 97.01562 198.8893 96.89417 198.6782 96.63879 C 198.0903 95.92798 197.7477 95.4071 197.1713 94.3479 C 196.8477 93.75317 196.452 93.09949 196.2915 92.89551 C 196.1312 92.69128 195.7571 92.20911 195.4595 91.82385 C 194.7715 90.93286 194.6718 90.89233 194.1121 91.27661 C 193.8806 91.43555 193.4412 91.78125 193.1356 92.04492 C 192.448 92.63843 191.9749 93.03552 191.326 93.56506 C 189.108 95.375 186.6426 98.34558 185.3054 100.8186 C 185.0532 101.2849 184.8104 101.7321 184.7657 101.8123 C 184.491 102.3054 184.2539 103.0198 184.0739 103.8967 C 184.0255 104.1318 184.155 104.1025 184.4445 103.8135 Z M 182.5293 102.3959 C 182.598 101.9214 182.7974 101.0322 182.9727 100.42 C 183.1478 99.80798 183.33 99.04895 183.3773 98.73315 C 183.5405 97.6427 183.9304 96.52283 184.5641 95.32568 C 186.0383 92.54028 186.2897 92.16455 188.5778 89.31653 C 189.6836 87.94019 190.3407 87.08203 190.7595 86.46704 C 190.9021 86.25781 191.1615 85.92969 191.3362 85.73792 C 191.5109 85.54602 191.6267 85.36389 191.5936 85.33276 C 191.5607 85.30176 191.3843 85.22571 191.2015 85.16382 C 191.0189 85.10205 190.6536 84.96948 190.3896 84.86926 C 189.9802 84.71375 189.6213 84.6405 188.1721 84.41577 C 187.8993 84.37341 187.8451 84.43799 187.7385 84.93005 C 187.6372 85.39868 187.5765 85.60144 186.9454 87.58423 C 186.3285 89.52234 185.9979 90.48376 185.7418 91.0863 C 185.6125 91.3905 185.4122 91.88818 185.297 92.19238 C 185.1818 92.49646 184.9824 93.0105 184.8546 93.33496 C 184.7267 93.65942 184.4769 94.33984 184.2996 94.84668 C 184.1221 95.35352 183.8568 96.09985 183.7095 96.50549 C 183.1317 98.09827 182.6337 99.6261 182.532 100.1182 C 182.2783 101.3451 182.109 103.4333 182.2515 103.5757 C 182.3252 103.6497 182.3837 103.4021 182.5293 102.3959 Z M 169.9147 103.2083 L 170.3893 102.8699 L 170.3875 102.0472 C 170.3864 101.5946 170.353 101.0914 170.313 100.9292 C 170.2729 100.7671 170.1901 100.402 170.1284 100.1182 C 170.0226 99.63 169.8698 99.17065 169.46 98.10913 C 169.3621 97.85571 169.2031 97.44092 169.1064 97.18738 C 168.7111 96.151 168.3463 95.29346 168.0636 94.73596 C 167.6064 93.83411 166.5219 91.89673 166.1583 91.3324 C 165.9796 91.05518 165.7781 90.7207 165.7107 90.58875 C 165.6433 90.45703 165.5476 90.34961 165.4979 90.35071 C 165.4009 90.35229 165.0493 90.88086 164.5917 91.71313 C 164.4355 91.99695 164.2034 92.39526 164.0756 92.5979 C 163.6926 93.20508 163.45 93.64734 162.8552 94.82043 C 162.0182 96.47156 161.6445 96.97021 160.5365 97.91528 C 159.8257 98.52185 159.562 98.70618 159.1414 98.89148 C 158.9423 98.97925 158.7972 99.06873 158.8188 99.09045 C 158.8407 99.11206 159.3024 99.0907 159.8451 99.0426 C 161.1188 98.92981 162.9631 98.99768 163.8822 99.19116 C 164.2611 99.27087 164.6095 99.36609 164.657 99.40295 C 164.7043 99.43994 164.8429 99.50403 164.9647 99.54553 C 165.5503 99.74487 167.0546 100.9412 167.5548 101.6052 C 167.924 102.0951 169.3024 103.5464 169.3987 103.5464 C 169.4215 103.5464 169.6538 103.3943 169.9147 103.2083 Z M 130.9514 100.601 C 132.3904 100.4821 133.4041 100.0691 134.3447 99.21936 C 134.739 98.86292 135.483 97.86829 136.0437 96.94788 C 136.3176 96.49817 136.6615 95.49255 136.6615 95.14124 C 136.6615 94.81482 136.271 93.61267 136.0524 93.26575 C 135.8269 92.9082 134.6246 92.29492 133.2177 91.81982 C 131.3647 91.19373 129.6298 90.9126 128.6492 91.07996 C 127.6716 91.24646 127.1301 91.69849 126.5654 92.81897 C 125.9956 93.94983 125.8656 94.45422 125.8289 95.68298 C 125.7902 96.97729 125.8696 97.47217 126.2308 98.1886 C 126.5516 98.82471 127.3444 99.6283 128.072 100.0551 C 128.5851 100.356 129.2755 100.5664 130.0563 100.6599 C 130.0969 100.6649 130.4998 100.6383 130.9514 100.601 Z M 142.3286 99.08044 L 142.9399 99.03333 L 143.325 98.58887 C 143.5366 98.34424 143.9326 97.89148 144.2048 97.58276 C 144.8167 96.88953 145.0513 96.47021 145.188 95.82568 C 145.327 95.17017 145.3236 94.58984 145.1775 93.948 C 144.9808 93.08386 144.5985 92.54431 143.6355 91.77136 C 142.579 90.92371 142.3606 90.81506 141.4988 90.70996 C 140.7319 90.61609 140.1948 90.69019 139.5702 90.97571 C 139.006 91.23352 137.8313 92.01685 137.3187 92.47656 L 136.9059 92.84705 L 137.1443 93.34912 C 137.6102 94.33008 137.7327 95.01379 137.5907 95.84375 C 137.5402 96.13916 137.5411 96.14148 137.88 96.30591 C 138.5198 96.61646 139.2299 97.41028 139.7069 98.34863 C 139.8101 98.55127 139.9761 98.79382 140.0764 98.88708 C 140.4154 99.203 140.5692 99.21606 142.3286 99.08044 Z M 120.7563 97.88782 C 120.8334 97.49438 120.8972 96.71057 120.9202 95.87866 C 120.9518 94.72791 120.9326 94.34473 120.798 93.42651 C 120.5192 91.52686 120.1122 90.19873 119.3823 88.80688 C 118.8885 87.86499 118.4731 87.32202 117.3646 86.16809 C 116.4762 85.24329 116.178 84.81982 115.8672 84.04199 C 115.611 83.40027 115.616 83.19434 115.8915 83.047 C 116.0811 82.94556 116.2788 82.96924 117.8585 83.2804 C 118.2532 83.35815 118.9373 83.46936 119.3785 83.52747 C 120.5356 83.67993 121.6057 84.07141 122.0338 84.49915 C 122.3285 84.79321 122.3413 84.48938 122.0592 83.89771 C 121.6851 83.11292 121.2704 82.5896 120.2814 81.65393 C 119.6814 81.08643 119.2124 80.57263 119.0498 80.30554 C 118.5823 79.53674 118.1976 78.17285 118.3156 77.70312 C 118.3864 77.42102 118.9236 77.20789 120.2775 76.92444 C 121.3213 76.70569 121.5312 76.68518 122.6761 76.6908 C 124.0464 76.69739 126.0967 76.94739 127.1411 77.23572 C 127.4456 77.31958 127.8607 77.43176 128.0637 77.48474 C 128.509 77.60059 129.2158 77.84668 130.5057 78.33447 C 131.037 78.53552 131.4941 78.69983 131.5214 78.69983 C 131.5764 78.69983 131.7573 78.77905 133.1848 79.42932 C 133.728 79.67676 134.2002 79.87939 134.234 79.87939 C 134.2677 79.87939 134.4713 79.95984 134.6863 80.05811 C 134.9012 80.15649 135.1763 80.26013 135.2974 80.28882 C 135.7085 80.38586 137.0907 80.95044 138.1378 81.44885 C 140.7893 82.71106 140.7429 82.69165 142.2998 83.2019 C 144.0789 83.78491 145.431 83.76538 146.6707 83.13843 C 147.1492 82.89648 147.6307 82.4165 147.8425 81.97058 C 148.1747 81.27136 148.2789 79.42163 148.0674 77.98499 C 147.8922 76.79529 147.5604 75.74695 146.5905 73.3175 C 146.1129 72.12134 145.6729 70.97668 145.6124 70.77393 C 145.552 70.57129 145.4773 70.37195 145.4462 70.33167 C 145.415 70.29114 145.3469 70.125 145.2953 69.96301 C 145.2435 69.80078 145.1266 69.5022 145.0354 69.29944 C 144.9442 69.09668 144.655 68.43311 144.3928 67.82483 C 143.4923 65.73535 141.9977 62.68164 141.6746 62.27124 L 141.5264 62.08301 L 141.5724 62.41028 C 141.5978 62.59033 141.6345 62.78723 141.6539 62.8479 C 141.7507 63.14941 141.9724 64.45337 142.0527 65.19312 C 142.165 66.22888 142.1031 68.70508 141.9459 69.46436 C 141.7072 70.61877 141.3821 70.96497 140.7887 70.69763 C 140.2925 70.47412 139.6464 69.47974 139.1687 68.20471 C 138.8025 67.22693 136.4604 63.5686 134.9742 61.65271 C 133.4045 59.62903 130.6096 56.88318 130.6096 57.36462 C 130.6096 57.39001 130.739 57.64709 130.897 57.93591 C 131.0548 58.22473 131.2905 58.71008 131.4205 59.01428 C 131.5503 59.31836 131.8032 59.87732 131.9819 60.25659 C 132.1606 60.63574 132.3071 60.95825 132.3071 60.97327 C 132.3071 60.98828 132.3871 61.17566 132.485 61.38977 C 133.1096 62.75757 133.7915 65.28394 133.9684 66.88684 C 134.0298 67.44324 134.1132 68.16406 134.1536 68.48853 C 134.194 68.81287 134.2593 69.55383 134.2982 70.13501 C 134.3771 71.31262 134.3428 71.45154 133.9296 71.62244 C 133.6589 71.73425 133.3875 71.6488 132.9098 71.30066 C 132.4624 70.97437 131.2593 70.375 130.3816 70.04089 C 129.9998 69.89575 129.5211 69.71155 129.3181 69.63208 C 127.5575 68.94275 122.7489 68.71594 120.6083 69.22131 C 120.3248 69.28821 119.9602 69.37354 119.7977 69.41089 C 119.3019 69.52502 117.1031 70.57239 116.4764 70.99316 C 115.9161 71.36951 114.9844 72.27222 113.6353 73.74597 C 113.1068 74.323 113.0671 74.35046 112.7657 74.35022 C 112.5917 74.34985 112.3427 74.30432 112.2122 74.2489 C 111.8717 74.10425 110.899 73.16492 109.5408 71.66797 C 108.8921 70.95325 108.3384 70.36853 108.3097 70.36853 C 108.281 70.36853 108.2635 71.84839 108.271 73.65723 L 108.2845 76.94592 L 108.0322 77.15686 C 107.881 77.28308 107.6503 77.38684 107.4563 77.41602 C 107.1332 77.46436 105.5551 77.34558 104.9268 77.22559 C 104.744 77.19043 104.3372 77.14355 104.0226 77.12085 C 103.5707 77.08826 103.4507 77.10059 103.4507 77.17957 C 103.4507 77.23438 103.7915 77.64038 104.2081 78.08179 C 104.6245 78.52319 105.264 79.23132 105.6288 79.65576 C 105.9937 80.08008 106.6323 80.82263 107.0483 81.30579 C 108.0219 82.43591 108.02 82.41589 107.2892 83.93799 C 106.9199 84.70703 106.7063 85.27234 106.5364 85.92944 C 106.3073 86.81677 106.2992 86.89807 106.2957 88.39539 C 106.2919 89.85876 106.3032 89.98816 106.4999 90.75476 C 107.0426 92.87256 107.6925 94.04883 109.5117 96.20605 C 110.0616 96.8584 111.1733 97.86963 111.3403 97.86963 C 111.3749 97.86963 111.4397 97.62878 111.484 97.33484 C 111.5632 96.81067 111.85 95.97327 112.1648 95.3468 C 112.6143 94.45203 113.2985 93.83252 114.2765 93.43433 C 114.7892 93.22559 114.9348 93.1991 115.5909 93.19678 C 116.1731 93.1947 116.4216 93.22827 116.767 93.35583 C 118.3502 93.9408 119.4467 95.27405 120.1282 97.44238 C 120.5513 98.7887 120.5769 98.80664 120.7563 97.88782 Z M 93.77905 137.5291 C 93.71057 137.4014 93.74316 137.2788 93.97095 136.8103 C 94.12207 136.4998 94.40637 135.9778 94.60291 135.6506 C 95.46594 134.2134 96.13086 132.4387 96.28674 131.1582 C 96.3761 130.4238 96.53577 129.335 96.81067 127.5825 C 96.89014 127.0757 97.005 126.3289 97.06567 125.9233 C 97.12622 125.5178 97.27271 124.7715 97.39124 124.2646 C 97.90039 122.0859 98.22803 121.3748 98.56677 121.7131 C 98.66211 121.8086 98.65637 121.873 98.51819 122.2502 C 98.3031 122.8376 98.23596 123.3359 98.1416 125.0452 C 97.8667 130.0305 97.61987 131.3772 96.56982 133.6282 C 96.19482 134.4324 96.07056 134.647 95.271 135.877 C 95.00732 136.2827 94.65991 136.8298 94.49878 137.0935 C 94.10974 137.7305 93.94153 137.8328 93.77905 137.5291 Z M 116.3756 100.729 C 115.9271 100.5117 115.3855 99.9469 115.1393 99.4397 C 114.9629 99.07605 114.9316 98.91882 114.9294 98.38562 C 114.9279 98.04102 114.951 97.64978 114.9808 97.51648 C 115.0576 97.17212 114.8967 97.14124 114.4828 97.42029 C 114.0753 97.69495 114.0043 97.70227 114.0043 97.47046 C 114.0043 97.26404 114.3375 96.95496 114.7792 96.75195 C 114.9415 96.67725 115.1339 96.57031 115.2063 96.51392 C 115.4043 96.36011 116.7321 96.42773 117.1511 96.61304 C 117.5304 96.78064 118.2615 97.4928 118.3286 97.76013 C 118.3612 97.88953 118.3351 97.99463 118.2454 98.09351 C 118.0134 98.34949 117.8199 98.27209 117.2421 97.69214 C 116.7191 97.16736 116.6812 97.14404 116.2616 97.09241 C 115.7285 97.02649 115.6273 97.12085 115.6293 97.68079 C 115.6326 98.63525 116.0802 99.8429 116.6313 100.3832 C 117.1411 100.8829 117.0231 101.0424 116.3756 100.729 Z M 131.2054 95.01233 C 130.6368 94.72278 130.4496 94.01465 130.8384 93.6261 C 131.3728 93.09204 132.381 93.46045 132.381 94.18958 C 132.381 94.60315 132.2487 94.82617 131.9036 94.99304 C 131.5309 95.17334 131.5216 95.17346 131.2054 95.01233 Z M 142.6835 94.66382 C 142.3885 94.50513 142.2755 94.3363 142.2728 94.05017 C 142.2681 93.54895 142.6528 93.15076 143.1416 93.15076 C 143.4491 93.15076 143.8395 93.43921 143.9222 93.72754 C 144.106 94.36755 143.2854 94.98767 142.6835 94.66382 Z" fill-rule="evenodd" fill="#000000" fill-opacity="1" stroke="none" stroke-opacity="1" stroke-width="0" stroke-linecap="round" stroke-linejoin="round"/>
</defs>
<g>
<use xlink:href="#path_9fc03837b93e433f97bbcb8bb79352b7"/>
</g>
</svg>