<?xml version="1.0" encoding="utf-8"?>
<svg version="1.1" id="svg2" width="2666.6667" height="2767.3999" viewBox="0 0 2666.6667 2767.3999" xmlns="http://www.w3.org/2000/svg">
  <g id="g8" transform="matrix(-1.333333, 0, 0, -1.333333, 2662.695801, 2767.449951)" style="">
    <g id="g10" transform="scale(0.1)">
      <path d="M 4218.8 9891.4 C 4218.8 9891.4 4850.8 10001 5424.4 9921 C 5480.8 9913 5536.8 9903.4 5591.2 9891.4 C 6201.6 9759 4610.8 7558.6 4436.8 5140.3 L 3151.3 5053.1 L 4218.8 9891.4" style="fill-opacity: 1; fill-rule: nonzero; stroke: black; fill: rgb(255, 255, 255); stroke-width: 52.5px; transform-origin: 4440.6px 7501.65px;" id="path12"/>
      <path d="M 3696.65 8435.18 C 3728.45 8293.28 3793.55 8160.98 3886.65 8049.18 L 4022.25 8146.78 C 3932.45 8250.88 3869.85 8375.48 3839.85 8509.58 C 3797.45 8698.78 3826.65 9020.78 3953.85 9049.18 C 4081.05 9077.58 4212.25 8817.75 4321.85 8634.38 C 4471.75 8383.67 4616.05 8231.75 4805.15 8297.13 C 4939.05 8343.44 5063.65 8506.07 5079.75 8736.35 C 5071.15 8729.87 5101.85 8932.04 4847.25 9361.5 L 4796.15 9336.24 C 4882.75 9204.04 4947.55 9018.48 4995.95 8868.07 C 5069.35 8640.01 4927.35 8406.08 4808.75 8352.88 C 4651.15 8282.19 4484.45 8409.28 4411.85 8750.27 C 4349.85 9041.27 4116.65 9329.58 3917.45 9284.78 C 3740.65 9244.78 3642.25 8888.38 3665.85 8604.78 L 3696.65 8435.18" style="fill-opacity: 1; fill-rule: nonzero; stroke: none; transform-origin: 4371.05px 8705.34px;" id="path14"/>
      <path d="M 5347.02 8967.6 L 5332.82 8916.34 L 3489.42 9323.47 L 3510.72 9379.4 L 5347.02 8967.6" style="fill-opacity: 1; fill-rule: nonzero; stroke: none; transform-origin: 4418.22px 9147.87px;" id="path16"/>
      <path d="M 5273.62 8615.28 L 5257.32 8566.3 L 3420.92 8978.1 L 3423.22 9027.08 L 5268.92 8617.62" style="fill-opacity: 1; fill-rule: nonzero; stroke: none; transform-origin: 4347.32px 8796.69px;" id="path18"/>
      <path d="M 2301.32 10085.9 C 2301.32 10085.9 3861.32 10347.5 4807.32 10173.1 C 4807.32 10173.1 3647.32 5924.35 3790.52 5183.6 L 2443.32 5053.1 L 2301.32 10085.9" style="fill-opacity: 1; fill-rule: nonzero; stroke: black; fill: rgb(255, 255, 255); stroke-width: 52.5px; transform-origin: 3554.32px 7643.05px;" id="path20"/>
      <path d="M 2092.08 8415.41 C 2125.68 8227.41 2206.88 8040.61 2292.08 7938.21 L 2461.68 8046.21 C 2361.88 8177.51 2296.08 8331.41 2270.08 8494.21 C 2232.08 8725.01 2288.88 9109.41 2444.08 9134.21 C 2599.28 9159.01 2731.58 8797.73 2850.88 8601.71 C 3042.68 8286.61 3299.88 8177.7 3415.78 8204 C 3572.08 8239.44 3661.88 8405.5 3682.68 8788.12 C 3661.28 8932.33 3599.88 9111.69 3437.18 9383.31 L 3382.48 9350.21 C 3477.78 9185.41 3576.88 8996.14 3614.08 8809.44 C 3654.08 8559.04 3516.68 8262.88 3406.88 8252.38 C 3265.68 8238.86 3091.58 8381.05 2900.18 8632.44 C 2683.18 8917.49 2660.88 9459.81 2418.88 9419.81 C 2203.68 9384.61 2060.88 8962.21 2069.28 8619.81 L 2092.08 8415.41" style="fill-opacity: 1; fill-rule: nonzero; stroke: none; transform-origin: 2875.78px 8680.07px;" id="path22"/>
      <path d="M 4077.82 8921.7 L 4064.62 8852.64 L 1829.92 9220.14 L 1843.12 9289.3 L 4077.82 8921.7" style="fill-opacity: 1; fill-rule: nonzero; stroke: none; transform-origin: 2953.82px 9070.97px;" id="path24"/>
      <path d="M 4000.62 8500.69 L 3997.72 8432.59 L 1763.02 8800.19 L 1771.92 8886.38 L 4000.62 8500.69" style="fill-opacity: 1; fill-rule: nonzero; stroke: none; transform-origin: 2881.82px 8659.5px;" id="path26"/>
      <path d="M 1259.25 5706.7 C 1259.25 5706.7 95.426 7342.89 -0.074 9456.49 C -0.074 9456.49 1020.45 10414.2 2572.05 10565.4 L 2715.25 6033.5 L 1259.25 5706.7" style="fill-opacity: 1; fill-rule: nonzero; stroke: black; fill: rgb(255, 255, 255); paint-order: fill markers; stroke-width: 52.5px; transform-origin: 1357.55px 8136.05px;" id="path28"/>
      <path d="M 576.475 8922.359 C 561.213 8772.547 608.089 8332.375 639.099 8183.148 L 694.066 8193.456 C 681.312 8215.008 607.049 8826.607 632.049 8970.177 C 668.765 9181.032 869.902 9295.627 1012.842 9246.027 C 1128.596 9205.861 1127.738 9173.086 1250.445 8967.561 C 1396.829 8722.379 1413.727 8509.564 1551.913 8448.748 C 1746.995 8362.891 2082.038 8381.037 2070.086 8749.126 C 2072.724 8749.126 2089.648 8851.77 2070.12 9408.31 L 2002.82 9388.57 C 2021.788 9221.948 2039.705 9090.389 2015.149 8740.639 C 1985.959 8324.885 1583.957 8514.161 1570.55 8517.669 C 1493.397 8537.856 1454.929 8670.197 1343.72 8962.7 C 1250.508 9207.866 1139.636 9311.248 1023.805 9323.537 C 855.09 9341.436 762.543 9324.71 607.839 9098.759 L 584.213 9007.483" style="fill-opacity: 1; fill-rule: nonzero; stroke: none;" id="path30"/>
      <path d="M 2233.18 9213.99 L 2246.47 9171.93 L 312.975 8668.84 C 299.975 8720.15 299.275 8720.82 299.675 8718.59 L 2233.18 9213.99" style="fill-opacity: 1; fill-rule: nonzero; stroke: none; transform-origin: 1273.08px 8941.43px;" id="path32"/>
      <path d="M 2307.52 8834.96 L 2325.82 8791.1 L 407.919 8295.8 L 394.019 8339.37 L 2307.52 8837.56" style="fill-opacity: 1; fill-rule: nonzero; stroke: none; transform-origin: 1359.92px 8566.68px;" id="path34"/>
      <path d="M 1681.41 1.2 L 1281.41 2246.3 C 1281.41 2246.3 867.812 2473.5 534.212 4115.5 C 200.612 5757.5 1875.81 7106.2 1875.81 7106.2 C 3544.91 8255 3315.71 5112.7 3315.71 5112.7 C 3760.51 3852.7 3311.71 3027.9 3311.71 3027.9 C 3311.71 3027.9 3667.65 2382.18 3785.71 2246.3 C 4495.71 1429.16 4459.31 1559.5 4459.31 1559.5 L 7594.76 2801.968 L 7538.934 6.654" style="fill: rgb(255, 255, 255); stroke: rgb(0, 0, 0); stroke-width: 52.5px;"/>
      <path d="M 5670.52 1.551 C 5670.52 1.551 7480.08 2491.05 8830.45 8031.35 C 8830.45 8031.35 8459.18 8446.35 9834.43 8217.35 L 9834.43 8600.15 L 9335.24 8600.15 C 9335.24 8600.15 10704.4 12016 10815.2 12942.4 C 10926 13868.8 11667.1 18236.1 15187 20573.7 C 15187 20573.7 16811.5 21737 16677.1 17465.1 C 16545.9 13285.2 16041.1 8978.15 16759.9 7273.35 C 17478.6 5568.65 19933 1553.45 19970.2 33.551" style="fill-rule: nonzero; stroke: black; paint-order: fill; fill: rgb(255, 255, 255); stroke-width: 52.5px;" id="path38"/>
      <path d="M 16560.6 9.821 C 16059.5 867.921 15663.3 1460.54 15355 2191.98 C 15355 2191.98 15254.4 2288.49 15300 2137.69 C 15345.6 1986.89 15715.7 1353.05 15715.7 1353.05 C 15674.8 1385.19 15501.5 1512.72 15481.8 1505.18 C 15441.5 1489.8 15574.8 1376.18 15674.3 1325.89 C 15768.2 1278.42 16296.2 383.081 16515.1 2.531 L 16558.8 -1.239" style="fill-opacity: 1; fill-rule: nonzero; stroke-width: 0px; transform-origin: 15924.4px 1110.58px;" id="path40"/>
      <path d="M 9985.23 8622.26 C 10476 8583.43 12083.1 8888.03 14007.8 7844.95 C 14007.8 7844.95 13777.9 7573.98 9858.03 8186.78 L 9860.4 8626.49" style="fill-opacity: 1; fill-rule: nonzero; stroke: none; transform-origin: 11932.9px 8210.28px;" id="path42"/>
      <path d="M 11345.6 9705.5 C 10796.1 9036.3 10040.1 9147.5 9657.27 9953.5 C 9274.48 10759.5 9325.67 11845 9875.26 12513.4 C 10424.9 13181.8 11301.7 13096.2 11684.8 12290.2 C 12068 11484.2 11895.2 10374.7 11345.6 9705.5" style="fill: rgb(254, 255, 255); fill-opacity: 1; fill-rule: nonzero; stroke: none; stroke-width: 0px; transform-origin: 10650.1px 11114.3px;" id="path44"/>
      <path d="M 10735.6 12900.4 C 10439.2 12900.4 10147.6 12749.6 9922.43 12475.2 C 9410.04 11851.2 9322.44 10801.7 9712.03 9979.7 C 9892.03 9600.5 10159.2 9371.3 10464.4 9334.1 C 10755.6 9298.5 11052 9443.7 11298.8 9743.7 C 11850.4 10416.1 11992.8 11499.6 11629.6 12263.6 C 11458.8 12623.6 11171.6 12852.8 10841.6 12893.2 C 10806.4 12897.8 10771 12900.2 10735.6 12900.4 Z M 10552.4 9206.9 C 10518 9206.9 10483.7 9208.9 10449.6 9212.9 C 10101.6 9255.7 9800.43 9509.3 9602.04 9927.3 C 9192.44 10790.1 9287.64 11894 9828.43 12552.4 C 10108.4 12892.4 10482.8 13060.4 10856.4 13014.8 C 11230 12969.2 11550.4 12715.6 11739.6 12315.6 C 12122 11511.2 11972.8 10371.7 11392.8 9665.7 C 11146.8 9367.3 10850 9206.9 10552.4 9206.9" style="fill-opacity: 1; fill-rule: nonzero; stroke-width: 52.5px; stroke: rgb(255, 255, 255); transform-origin: 10649.8px 11114.7px;" id="path46"/>
      <path d="M 11547.2 11171.5 C 11641.7 12217.4 12307.9 13012.1 13035.3 12946.4 C 13762.6 12880.7 14275.7 11979.5 14181.2 10933.6 C 14086.8 9887.6 13420.6 9093 12693.2 9158.7 C 11965.8 9224.3 11452.8 10125.5 11547.2 11171.5" style="fill: rgb(254, 255, 255); fill-opacity: 1; fill-rule: nonzero; stroke: none; transform-origin: 12864.2px 11052.4px;" id="path48"/>
      <path d="M 12949.9 12889.8 C 12661.5 12889.8 12376.4 12746.6 12136.4 12479 C 11556.4 11832.6 11422 10665.5 11837.2 9877.1 C 12037.2 9496.7 12333.2 9264.3 12669.5 9222.3 C 12993.9 9182.3 13320.7 9325.9 13589.5 9626.7 C 14169.5 10273.1 14303.5 11440.2 13888.3 12226.6 C 13688.3 12607 13392.3 12839.8 13055.9 12881.4 C 13020.8 12886.4 12985.4 12889.2 12949.9 12889.8 Z M 12777.5 9093.9 C 12736.5 9094 12695.5 9096.6 12654.7 9101.5 C 12277.6 9148.3 11948.8 9403.5 11729.6 9821.5 C 11292.4 10651.1 11434.4 11880.2 12045.6 12561.4 C 12342.8 12892.6 12707.9 13050.2 13071.9 13005 C 13449.1 12958.2 13777.9 12703 13997.5 12285 C 14434.3 11455.4 14292.3 10226.3 13681.5 9545.1 C 13417.5 9251.1 13100.7 9093.9 12777.5 9093.9" style="fill-opacity: 1; fill-rule: nonzero; stroke: rgb(255, 255, 255); stroke-width: 52.5px; transform-origin: 12863.4px 11053.1px;" id="path50"/>
      <path d="M 12686.2 11453.7 C 12890.2 11464.4 13065.9 11277.5 13078.5 11036.4 C 13091.1 10795.3 12935.8 10591.2 12731.8 10580.5 C 12527.7 10569.9 12352.1 10756.7 12339.5 10997.8 C 12326.9 11238.9 12482.1 11443.1 12686.2 11453.7" style="fill: rgb(42, 20, 20); fill-opacity: 1; fill-rule: nonzero; stroke: none; transform-origin: 12709px 11017.1px;" id="path52"/>
      <path d="M 10401.4 11713.8 C 10605.4 11724.4 10781.1 11537.6 10793.7 11296.5 C 10806.3 11055.3 10651 10851.2 10447 10840.6 C 10242.9 10829.9 10067.3 11016.8 10054.7 11257.9 C 10042.1 11499 10197.3 11703.1 10401.4 11713.8" style="fill: rgb(42, 20, 20); fill-opacity: 1; fill-rule: nonzero; stroke: none; transform-origin: 10424.2px 11277.2px;" id="path54"/>
      <path d="M 9405.64 11795.7 C 9405.64 11795.7 9143.65 11786.1 9135.25 11626.1 C 9126.85 11466.1 9020.45 11366.2 9411.24 11360.9 C 9802.03 11355.8 11026.4 11337.8 11026.4 11337.8 C 11026.4 11337.8 11660 11307.8 11966 11307.8 C 12086 11307.8 11983.2 12087.7 11983.2 12087.7 C 11983.2 12087.7 11847.2 12994.9 10872.8 13005.3 C 9898.43 13015.7 9637.64 12320.9 9637.64 12320.9 L 9405.64 11795.7" style="fill-opacity: 1; fill-rule: nonzero; stroke: none; fill: rgb(255, 255, 255); transform-origin: 10570px 12156.6px;" id="path56"/>
      <path d="M 11964.8 11245.5 C 11660.8 11245.5 11030 11275 11023.6 11275.5 L 9410.05 11298.7 C 9223.25 11301 9132.06 11323.9 9085.66 11378.7 C 9039.25 11433.4 9053.66 11495 9064.06 11551.8 C 9068.83 11576.4 9072.17 11601.3 9074.06 11626.2 C 9082.06 11779 9245.65 11837 9364.05 11850.2 L 9581.65 12342.6 C 9581.65 12346.6 9861.64 13062.6 10850.4 13062.6 L 10872.8 13062.6 C 11887.6 13051.8 12041.6 12102.6 12042.8 12093 C 12070.8 11881.8 12126 11380.7 12034 11275.5 C 12016.4 11255.8 11991.1 11244.8 11964.8 11245.5" style="fill-opacity: 1; fill-rule: nonzero; stroke-width: 52.5px; paint-order: markers; stroke: rgb(0, 0, 0); fill: rgb(255, 255, 255); transform-origin: 10569.2px 12153.9px;" id="path58"/>
      <path d="M 11639.6 11711.6 C 11639.6 11711.6 11377.6 11701.6 11369.2 11530.8 C 11360.8 11360.1 11254 11253.3 11645.2 11247.7 C 12036.4 11242 13253.9 11190.8 13253.9 11190.8 L 14199.9 11190.8 C 14319.9 11190.8 14216.7 12023.6 14216.7 12023.6 C 14216.7 12023.6 14080.7 12992.4 13106.3 13003.6 C 12132 13014.8 11871.6 12272.8 11871.6 12272.8 L 11639.6 11711.6" style="fill-opacity: 1; fill-rule: nonzero; fill: rgb(255, 255, 255); transform-origin: 12803.8px 12097.4px;" id="path60"/>
      <path d="M 13982.3 15382.8 L 14802.3 14760.4 C 14802.3 14760.4 14717.4 14742.5 14380.6 14778.9 C 14380.6 14778.9 14685.1 14526.8 14560.7 14401.2 C 14560.7 14401.2 13843.1 14921.2 13600.7 15148.4 C 13668.8 15196.6 13893.6 15125.2 13976.3 15114.6 C 13976.3 15114.6 13665.9 15646.4 13982.3 15382.8" style="fill-opacity: 1; fill-rule: nonzero; stroke: none; transform-origin: 14201.5px 14928.8px;" id="path62"/>
      <path d="M 11020 15246.5 L 11981.1 15614.6 C 11908.6 15473.4 11997.9 15462.2 11733.1 15246.9 C 11733.1 15246.9 12055.2 15301.3 12069.2 15137.7 C 12069.2 15137.7 11266 14882.1 10958.4 14825.3 C 10965.3 14905.5 11217.8 15062.9 11274.9 15119.6 C 11274.9 15119.6 10641.2 15153.3 11020 15246.5" style="fill-opacity: 1; fill-rule: nonzero; stroke: none; transform-origin: 11484.3px 15220px;" id="path64"/>
      <path d="M 14506.3 17000.7 C 14515.2 17099.1 14575.8 17174 14641.5 17168.1 C 14707.3 17162.1 14753.5 17077.6 14744.6 16979.2 C 14735.7 16880.9 14675.2 16806 14609.4 16811.9 C 14543.6 16817.8 14497.5 16902.4 14506.3 17000.7" style="fill-opacity: 1; fill-rule: nonzero; stroke: none; transform-origin: 14625.5px 16990px;" id="path66"/>
      <path d="M 8915.17 1573.41 C 8924.07 1672.21 8984.87 1747.41 9050.87 1741.51 C 9116.97 1735.51 9163.27 1650.61 9154.37 1551.91 C 9145.57 1453.11 9084.77 1377.91 9018.77 1383.91 C 8952.67 1389.81 8906.37 1474.71 8915.17 1573.41" style="fill-opacity: 1; fill-rule: nonzero; stroke: none; transform-origin: 9034.77px 1562.69px;" id="path68"/>
      <path d="M 16569.8 1426.2 C 16578.7 1524.9 16639.5 1600.1 16705.5 1594.2 C 16771.6 1588.3 16817.9 1503.4 16809 1404.6 C 16800.1 1305.9 16739.4 1230.7 16673.3 1236.6 C 16607.3 1242.6 16560.9 1327.4 16569.8 1426.2" style="fill-opacity: 1; fill-rule: nonzero; stroke: none; transform-origin: 16689.4px 1415.4px;" id="path70"/>
      <path d="M 10311.6 11833.3 C 10311.6 11833.3 10693.2 11942.5 10914 11802.1 C 10914 11802.1 11009.2 11730.2 10908.8 11737.8 C 10808.4 11745.4 10753.6 11850.4 10311.6 11773.2 C 10311.6 11772.4 10223.6 11813.7 10311.6 11833.3" style="fill-opacity: 1; fill-rule: nonzero; stroke: none; transform-origin: 10613.7px 11805.5px;" id="path74"/>
      <path d="M 14199.9 11134.2 L 13253.9 11134.2 C 13239.1 11134.2 12030 11185.4 11644.4 11190.9 C 11464 11193.4 11371.2 11216.9 11324.4 11270.9 C 11277.6 11324.9 11290.8 11388.6 11301.2 11451.3 C 11306.1 11477.8 11309.5 11504.5 11311.6 11531.3 C 11319.2 11691.3 11482 11749.7 11599.6 11763.3 L 11818.4 12292.5 C 11818.4 12297.3 12104 13076.5 13106.3 13058.1 C 14117.9 13046.5 14271.1 12039.3 14272.3 12029.3 C 14300.3 11802.5 14355.5 11266.6 14263.1 11161.8 C 14246.8 11144.1 14223.9 11134.1 14199.9 11134.2" style="fill-opacity: 1; fill-rule: nonzero; stroke-width: 52.5px; stroke: rgb(0, 0, 0); fill: rgb(255, 255, 255); transform-origin: 12802.8px 12096.3px;" id="path76"/>
      <path d="M 12741.9 11708.1 C 12741.9 11708.1 13216.3 11840.1 13558.3 11653.7 C 13558.3 11653.7 13664.8 11603.5 13512.4 11611.9 C 13360 11620.3 13427.2 11760.7 12750 11645.9 C 12748 11645.9 12606.7 11679.3 12741.9 11708.1" style="fill-opacity: 1; fill-rule: nonzero; stroke: none; transform-origin: 13139px 11682.2px;" id="path72"/>
    </g>
  </g>
</svg>