<?xml version="1.0" standalone="no"?>
<!DOCTYPE svg PUBLIC "-//W3C//DTD SVG 20010904//EN"
 "http://www.w3.org/TR/2001/REC-SVG-20010904/DTD/svg10.dtd">
<svg version="1.0" xmlns="http://www.w3.org/2000/svg"
 width="1470.000000pt" height="980.000000pt" viewBox="0 0 1470.000000 980.000000"
 preserveAspectRatio="xMidYMid meet">

<g transform="translate(0.000000,980.000000) scale(0.100000,-0.100000)"
fill="#000000" stroke="none">
<path d="M4950 9180 c-171 -29 -391 -126 -560 -247 -173 -125 -358 -326 -482
-526 -72 -115 -177 -336 -238 -502 -61 -166 -69 -179 -118 -204 -121 -61 -320
-239 -434 -386 -175 -225 -315 -511 -454 -932 -122 -368 -183 -661 -191 -928
-6 -183 4 -295 38 -430 53 -206 119 -321 283 -492 69 -72 103 -115 95 -117 -8
-3 -120 -35 -249 -72 -527 -149 -792 -258 -1197 -490 -331 -190 -629 -386
-948 -624 -240 -179 -475 -368 -475 -381 0 -19 16 -8 250 167 428 321 833 601
1090 754 237 141 633 328 923 436 126 47 392 130 545 170 85 22 96 22 128 9
19 -8 37 -21 40 -30 4 -10 -24 -62 -78 -143 -106 -158 -112 -169 -187 -320
-102 -204 -195 -450 -277 -730 -49 -169 -50 -180 -29 -188 8 -3 124 46 257
110 327 155 401 173 506 120 42 -21 59 -37 82 -78 44 -79 51 -86 43 -51 -23
115 -116 189 -233 189 -97 0 -228 -53 -508 -203 -52 -28 -100 -47 -109 -44
-23 9 -12 58 81 337 119 358 223 575 401 845 55 83 75 107 95 109 22 2 441
-190 501 -230 l21 -14 -21 -189 c-12 -105 -38 -329 -57 -500 -78 -697 -253
-1598 -465 -2395 -59 -219 -236 -870 -255 -932 -3 -12 0 -18 10 -18 17 0 16
-5 105 315 208 746 346 1323 465 1941 83 431 106 582 171 1143 24 211 48 388
54 394 16 16 37 3 92 -63 112 -132 293 -265 519 -379 166 -85 319 -141 516
-191 297 -76 535 -106 788 -97 182 6 272 22 395 71 77 31 87 32 99 9 15 -29
-16 -375 -54 -608 -48 -296 -182 -960 -244 -1206 -83 -330 -220 -806 -330
-1142 -33 -101 -60 -187 -60 -191 0 -3 6 -6 14 -6 19 0 193 535 307 945 175
624 344 1485 389 1975 22 242 32 314 56 400 20 72 84 210 98 210 41 0 361 43
450 60 86 17 111 19 117 9 13 -22 67 -228 88 -339 61 -316 78 -719 30 -728 -8
-1 -69 45 -135 104 -164 147 -210 177 -285 182 -54 4 -68 1 -134 -32 -66 -33
-144 -100 -131 -113 3 -3 27 11 54 31 80 58 128 76 210 76 64 0 76 -3 97 -24
13 -13 27 -37 31 -52 15 -61 -73 -663 -140 -949 -44 -190 -175 -713 -322
-1287 -63 -245 -114 -451 -114 -457 0 -6 6 -11 13 -11 19 0 331 1209 463 1789
24 107 48 199 53 204 6 6 44 -5 103 -31 348 -152 990 -303 1618 -381 671 -84
1269 -34 1839 151 467 152 859 390 1005 612 44 66 76 101 151 161 110 89 288
273 348 361 l42 61 164 7 c90 3 246 6 346 6 235 0 397 13 622 51 391 64 543
138 543 262 0 12 -34 105 -75 207 -42 102 -87 220 -100 263 l-25 78 40 50 c46
59 74 143 68 203 -6 50 -53 158 -79 182 -19 17 -18 18 9 68 86 153 82 274 -16
428 -17 28 -17 29 28 110 l45 83 0 106 c0 104 0 107 -37 165 -41 66 -114 124
-193 152 -29 11 -51 25 -53 35 -4 22 47 68 186 168 284 205 579 353 880 440
85 25 112 37 112 50 0 9 -18 53 -40 96 -55 111 -168 219 -286 275 -61 28 -84
44 -84 58 0 10 26 41 58 69 l57 52 -29 23 c-15 13 -93 63 -173 112 -259 159
-262 162 -193 254 23 30 48 67 56 82 37 70 -29 97 -356 144 -63 9 -123 20
-132 25 -24 13 -23 36 7 115 14 36 23 69 20 74 -2 4 -39 13 -82 20 -43 6 -136
25 -208 42 -123 28 -138 30 -290 25 -124 -4 -222 -15 -440 -51 -343 -55 -455
-66 -706 -66 -108 0 -210 -3 -228 -6 l-31 -6 35 -63 c36 -64 44 -102 23 -110
-7 -3 -91 -11 -185 -20 -170 -14 -263 -30 -263 -45 0 -4 44 -99 99 -211 99
-205 141 -305 141 -337 0 -20 -334 -386 -475 -520 -54 -52 -140 -125 -192
-163 -87 -65 -137 -120 -130 -144 2 -5 44 -13 93 -18 355 -31 526 -85 739
-235 86 -60 195 -164 195 -186 0 -8 -44 -59 -99 -113 -87 -87 -104 -109 -145
-195 -82 -171 -90 -217 -91 -489 l0 -237 -110 2 c-100 1 -116 -2 -178 -28 -88
-37 -216 -117 -298 -187 -36 -31 -110 -82 -165 -114 -54 -32 -207 -122 -339
-200 -377 -223 -611 -344 -800 -413 -322 -118 -726 -122 -1124 -11 -268 75
-637 233 -696 299 -27 30 -13 40 145 95 311 109 504 207 690 351 53 41 59 43
180 59 151 21 213 43 274 97 99 86 124 211 59 289 -30 36 -59 49 -128 58 l-50
6 2 38 c5 76 79 218 153 294 18 18 49 37 69 42 20 5 66 16 102 24 168 39 263
129 284 268 13 85 -15 140 -104 209 -27 21 -39 46 -77 160 -27 84 -83 212
-145 338 -55 112 -98 209 -96 216 3 7 45 30 94 51 195 83 310 152 383 228 60
62 80 110 80 195 0 41 5 74 11 78 6 3 24 27 40 52 43 68 41 139 -7 233 l-35
71 17 43 c21 56 13 100 -29 155 -70 92 -77 105 -77 135 0 95 -56 168 -181 235
-60 33 -96 61 -137 108 -104 119 -240 204 -439 277 l-101 37 -12 87 c-60 423
-292 686 -685 777 -112 26 -375 26 -495 0 -171 -37 -335 -104 -508 -208 l-83
-50 -88 85 c-187 180 -370 287 -605 353 -134 38 -445 56 -576 34z m441 -45
c229 -40 485 -165 662 -323 190 -169 342 -436 402 -705 27 -124 19 -125 -165
-9 -124 78 -324 181 -432 222 -164 63 -258 82 -448 87 -259 7 -420 -24 -629
-124 -98 -47 -122 -70 -30 -29 84 37 206 73 330 97 148 29 389 32 522 5 296
-58 658 -241 877 -442 248 -228 453 -504 374 -504 -8 0 -43 20 -77 43 -235
165 -557 309 -828 368 -138 31 -408 34 -539 6 -196 -42 -363 -109 -502 -200
-100 -65 -238 -175 -238 -189 0 -6 24 10 53 34 79 68 168 123 313 194 247 120
370 149 639 148 197 0 274 -14 485 -84 275 -92 605 -281 764 -436 61 -59 69
-83 64 -177 l-3 -58 -94 86 c-108 99 -168 135 -341 203 -174 69 -320 115 -564
177 -263 66 -347 79 -489 73 -239 -11 -482 -113 -697 -292 -95 -79 -142 -145
-148 -205 l-4 -47 88 -58 c49 -32 136 -93 194 -136 58 -42 137 -98 177 -123
318 -204 703 -284 1108 -232 310 40 553 112 704 207 33 21 34 21 48 2 21 -27
12 -138 -14 -173 -67 -89 -289 -172 -553 -205 -313 -39 -587 -43 -767 -11
-282 49 -504 136 -711 278 -105 72 -103 70 -96 52 11 -28 177 -144 279 -194
109 -54 296 -116 470 -157 255 -59 688 -34 1066 61 265 67 358 136 359 266 0
70 14 76 108 50 344 -95 729 -135 1109 -113 249 14 354 32 522 88 73 25 143
44 155 42 43 -6 28 -97 -29 -172 -79 -104 -425 -269 -653 -312 -124 -23 -425
-15 -572 15 -126 26 -259 62 -357 95 -40 14 -73 23 -73 20 0 -12 152 -74 248
-103 211 -63 307 -76 527 -75 163 1 214 5 278 22 l77 19 29 -51 c53 -92 191
-396 225 -494 46 -135 50 -158 27 -181 -39 -39 -424 -145 -666 -183 -119 -19
-181 -22 -415 -22 -492 0 -744 41 -1698 278 -299 75 -600 147 -670 161 -463
95 -795 -58 -1005 -463 -163 -313 -163 -542 -2 -711 67 -70 150 -117 242 -136
86 -18 166 -18 318 0 142 17 405 19 564 4 132 -12 317 -41 891 -137 594 -101
780 -119 1291 -130 l314 -7 3 -25 c3 -22 -7 -32 -77 -73 -410 -244 -998 -413
-1560 -448 -459 -29 -1204 60 -1684 201 -444 130 -1107 394 -1344 536 -395
235 -575 510 -614 933 -20 222 6 463 86 776 140 547 347 1009 584 1299 70 85
209 218 299 287 103 78 114 68 82 -78 -18 -84 -39 -297 -26 -268 3 6 16 73 30
150 46 254 118 468 246 730 271 552 672 896 1145 979 108 19 332 20 436 1z
m1929 -214 c47 -12 132 -45 190 -73 93 -45 115 -61 200 -147 81 -81 103 -111
143 -191 26 -52 58 -138 71 -190 51 -207 51 -208 -94 -180 -149 27 -290 40
-455 40 -253 0 -577 -35 -780 -84 -55 -14 -101 -24 -101 -23 -1 1 -13 48 -27
104 -31 126 -99 287 -174 412 -44 74 -52 95 -42 102 135 89 350 182 514 223
145 36 136 35 310 31 121 -2 181 -8 245 -24z m415 -796 c208 -31 347 -71 486
-140 146 -72 272 -171 267 -209 -3 -24 3 -24 -186 -8 -147 12 -332 1 -475 -29
-213 -43 -608 -198 -770 -301 -26 -17 -49 -29 -51 -27 -2 2 -24 48 -49 102
-49 104 -71 132 -35 45 67 -168 72 -192 38 -203 -27 -9 -37 -1 -50 43 -33 103
-139 259 -328 482 -110 129 -108 168 9 194 131 30 332 57 484 66 202 11 538 4
660 -15z m590 -385 c130 -15 238 -45 341 -95 120 -58 191 -137 170 -190 -8
-23 -30 -19 -129 25 -49 22 -115 47 -146 56 -77 21 -331 30 -446 15 -282 -37
-757 -191 -977 -315 -89 -51 -104 -50 -106 8 -1 18 -6 53 -11 76 -9 40 -8 45
20 72 55 56 407 207 633 272 241 70 468 96 651 76z m-2584 -186 c243 -45 672
-171 848 -248 247 -109 377 -233 389 -371 9 -111 -39 -187 -156 -248 -69 -36
-254 -99 -330 -112 -57 -9 -62 9 -26 88 27 58 29 70 29 188 0 124 0 125 -38
201 -60 122 -176 215 -312 249 -24 6 -79 10 -122 8 -148 -7 -276 -99 -348
-251 -82 -173 -69 -321 39 -436 90 -96 60 -107 -152 -52 -225 57 -391 144
-697 363 -218 156 -219 158 -164 240 105 158 402 331 655 381 95 19 284 19
385 0z m2735 -35 c163 -29 299 -94 402 -194 69 -67 72 -73 72 -117 0 -71 -13
-74 -107 -19 -150 87 -272 111 -481 93 -155 -14 -232 -33 -339 -82 -183 -85
-301 -260 -291 -432 3 -49 9 -75 26 -97 26 -35 28 -59 6 -68 -20 -8 -264 28
-494 72 -226 44 -286 60 -294 81 -3 9 1 45 9 80 8 36 15 101 15 145 0 97 14
134 71 183 127 108 545 263 924 342 124 26 373 33 481 13z m4269 -64 c92 -19
171 -38 176 -41 5 -3 9 -12 9 -19 0 -8 -45 -117 -101 -242 -115 -260 -231
-542 -290 -706 -129 -358 -213 -761 -240 -1147 -6 -91 -15 -173 -21 -182 -11
-23 -41 -23 -59 -1 -18 21 -19 336 -1 483 53 430 185 1000 349 1507 38 117 43
145 33 158 -10 13 -49 15 -244 15 -259 0 -419 -8 -880 -46 -176 -14 -330 -23
-343 -19 -16 4 -31 21 -47 58 -13 28 -35 63 -50 76 -14 14 -26 28 -26 33 0 4
141 8 313 8 356 1 412 5 777 60 146 22 281 41 300 44 69 8 180 -4 345 -39z
m-4115 -210 c208 -47 369 -187 370 -323 0 -89 -48 -143 -181 -207 -72 -34
-217 -76 -311 -89 l-47 -7 39 74 c45 88 58 164 42 255 -16 96 -55 162 -145
249 l-80 76 119 -6 c66 -3 153 -13 194 -22z m3905 -15 c23 -19 20 -36 -79
-371 -84 -284 -137 -506 -195 -814 -61 -322 -81 -518 -81 -791 l0 -191 -31 -7
c-65 -13 -89 -8 -100 22 -7 15 -13 130 -16 272 -7 344 7 439 153 1060 41 173
74 320 74 327 0 6 -13 14 -28 18 -34 7 -84 57 -102 102 -7 18 -15 68 -19 110
l-6 78 -215 -1 c-148 -1 -274 -7 -405 -22 -104 -12 -232 -24 -282 -28 l-93 -7
0 -76 c0 -80 -27 -160 -64 -190 -40 -33 -38 -42 35 -247 82 -231 144 -433 193
-629 43 -176 86 -378 86 -410 0 -33 -41 -61 -68 -46 -25 14 -33 35 -87 241
-147 561 -293 965 -486 1348 -48 94 -83 175 -78 178 5 3 98 9 207 15 456 21
622 30 887 49 364 26 397 27 606 26 137 -1 180 -4 194 -16z m545 -35 c238 -34
310 -55 310 -89 0 -11 -41 -77 -91 -146 -227 -313 -321 -466 -493 -801 -153
-295 -213 -431 -336 -749 -56 -146 -107 -271 -115 -279 -7 -7 -19 -10 -25 -6
-30 18 10 365 61 531 84 281 298 762 518 1167 62 114 111 214 108 221 -3 7
-23 17 -44 21 -21 4 -53 13 -70 20 -29 12 -33 19 -33 50 0 45 40 90 73 82 12
-3 74 -13 137 -22z m-6823 -94 c46 -24 98 -76 112 -114 39 -104 -19 -231 -128
-280 -101 -45 -241 23 -294 142 -75 170 136 342 310 252z m2073 -1 c97 -49
139 -210 81 -304 -66 -106 -258 -109 -344 -6 -79 94 -46 254 64 308 58 29 145
30 199 2z m4590 -36 c30 -9 61 -18 68 -20 14 -4 -12 -60 -138 -290 -119 -216
-183 -345 -280 -564 -69 -158 -90 -195 -105 -195 -17 0 -20 6 -18 48 3 88 108
388 283 807 87 211 105 244 123 236 7 -2 37 -12 67 -22z m-840 -71 c0 -59 19
-163 36 -195 8 -15 34 -42 57 -59 23 -17 45 -40 50 -51 5 -13 -12 -100 -47
-247 -153 -634 -186 -898 -154 -1229 14 -153 11 -159 -67 -119 -54 29 -181
111 -222 144 -20 17 -23 34 -38 228 -9 116 -18 215 -20 220 -5 10 0 -111 11
-285 7 -113 1 -121 -68 -91 -68 30 -146 58 -179 65 -34 7 -42 28 -74 201 -58
308 -186 750 -285 979 -34 79 -41 102 -32 115 43 60 74 126 88 188 8 39 21 78
27 87 9 12 59 20 207 35 252 26 498 44 653 49 l57 2 0 -37z m1306 -150 c33
-27 109 -79 169 -117 128 -80 155 -103 148 -121 -2 -8 -62 -58 -131 -112 -425
-328 -703 -648 -987 -1135 -72 -125 -102 -168 -116 -168 -45 0 -33 56 59 258
147 327 276 510 611 862 222 233 259 274 236 262 -32 -16 -333 -323 -463 -472
-65 -74 -125 -135 -133 -135 -8 0 -15 12 -17 27 -6 50 210 440 386 698 113
166 140 200 161 200 10 0 44 -21 77 -47z m-2480 -360 c49 -110 260 -771 279
-876 6 -30 4 -38 -10 -44 -13 -4 -28 5 -54 34 -194 218 -276 289 -442 380 -49
26 -89 51 -89 55 0 3 15 15 33 27 34 21 183 170 156 155 -22 -12 -227 -187
-228 -195 -1 -4 33 -21 74 -39 160 -70 347 -224 480 -395 119 -153 137 -197
89 -215 -55 -21 -72 -13 -167 78 -214 206 -441 305 -787 342 -98 11 -130 21
-130 41 0 4 54 51 120 103 131 105 263 232 474 459 87 93 145 147 157 147 15
0 27 -16 45 -57z m2832 -75 c101 -57 229 -182 267 -262 20 -41 26 -63 19 -73
-5 -9 -64 -30 -129 -49 -147 -40 -279 -94 -439 -177 -215 -113 -351 -206 -753
-516 -82 -63 -113 -72 -113 -34 0 19 101 155 188 253 36 39 48 60 38 60 -33 0
-14 42 68 151 172 227 382 444 593 614 101 81 110 86 146 82 21 -3 72 -25 115
-49z m-8713 -707 c105 -8 199 -28 710 -155 644 -158 842 -203 1100 -246 326
-55 421 -62 734 -57 274 4 292 5 436 36 202 43 309 72 508 138 192 64 204 63
237 -10 40 -87 15 -213 -56 -279 -140 -131 -786 -186 -1599 -137 -391 24 -635
67 -1414 248 -463 109 -500 115 -676 108 -112 -4 -166 -10 -215 -26 -191 -61
-361 -235 -377 -385 -5 -46 -2 -59 17 -86 46 -65 136 -84 445 -95 461 -16 610
-33 1055 -120 625 -122 787 -138 1375 -139 482 0 607 9 815 60 176 44 248 20
258 -84 6 -64 -12 -115 -56 -164 -97 -107 -253 -132 -832 -133 -495 0 -616 12
-1435 150 -275 46 -556 91 -625 100 -197 26 -482 30 -700 10 -200 -19 -276
-16 -363 14 -211 73 -317 246 -286 465 11 83 57 222 100 308 135 268 369 450
614 478 86 10 97 10 230 1z m7941 -385 c137 -68 192 -160 182 -305 -6 -78 -24
-117 -87 -184 -88 -95 -231 -175 -422 -238 -137 -45 -238 -60 -418 -62 -107
-2 -133 1 -141 13 -13 19 -8 30 39 93 86 115 92 224 16 323 -15 19 -25 41 -22
48 3 7 44 25 92 40 185 58 349 140 535 266 90 61 112 62 226 6z m-1544 23 c29
-7 76 -22 103 -34 56 -24 479 -283 538 -328 84 -65 105 -178 52 -276 -47 -86
-130 -140 -246 -162 -54 -10 -74 -9 -129 5 -80 20 -170 62 -247 113 -32 22
-76 50 -98 63 l-40 24 49 -58 49 -57 -6 -72 c-18 -228 -144 -683 -290 -1050
-69 -176 -70 -178 -51 -197 10 -11 50 -26 87 -34 38 -8 73 -18 78 -23 6 -6 -1
-39 -21 -88 -40 -101 -38 -114 24 -135 56 -18 78 -42 58 -62 -21 -21 -148 -14
-212 12 -224 89 -427 382 -494 712 -19 89 -21 273 -5 350 12 60 107 250 120
242 5 -3 9 -11 9 -18 0 -8 11 -53 25 -100 29 -101 83 -218 120 -261 l26 -30
-20 40 c-34 71 -89 239 -113 347 -20 90 -23 130 -23 318 0 200 2 220 24 285
82 241 233 416 406 471 51 16 158 17 227 3z m-3148 -375 c23 -9 20 -25 -18
-88 -38 -63 -67 -134 -91 -219 -10 -34 -24 -61 -36 -67 -22 -13 -296 -60 -344
-60 l-33 0 5 98 c8 163 40 257 101 301 27 19 42 21 374 39 14 1 33 -1 42 -4z
m4813 -257 c16 -19 35 -55 43 -80 18 -66 9 -182 -19 -239 -26 -55 -120 -154
-193 -203 -208 -140 -639 -182 -867 -85 -88 38 -151 126 -151 212 0 45 40 138
77 179 l35 38 41 -17 c34 -14 74 -17 212 -17 152 0 181 3 275 28 165 42 296
97 436 181 32 20 64 36 70 36 7 0 25 -15 41 -33z m-1503 -160 c18 -24 18 -31
3 -179 -19 -184 -44 -311 -103 -517 -24 -84 -44 -159 -44 -166 0 -6 22 -26 50
-43 62 -39 86 -77 94 -153 9 -75 26 -92 129 -124 110 -35 234 -55 341 -55 179
0 444 43 526 85 36 19 46 41 56 124 l6 60 75 27 c64 23 76 25 88 13 23 -24 75
-167 75 -207 0 -97 -124 -146 -490 -193 -353 -46 -435 -43 -715 28 -120 31
-169 37 -338 48 -118 7 -202 16 -209 23 -8 8 3 44 46 140 113 261 221 633 271
940 14 86 28 172 31 190 l5 33 42 -24 c23 -14 50 -36 61 -50z m171 -38 c33 -5
84 -9 113 -9 28 0 52 -4 52 -8 0 -5 -8 -33 -19 -63 -39 -116 -36 -184 15 -261
30 -46 30 -47 -2 -127 -54 -133 -29 -248 73 -341 114 -104 243 -143 463 -140
80 2 151 2 158 1 15 -1 16 -71 0 -105 -15 -34 -84 -59 -236 -88 -94 -18 -154
-22 -302 -23 -187 0 -259 9 -397 50 -60 18 -71 33 -80 108 -8 73 -35 121 -89
158 -37 25 -45 35 -40 53 68 243 130 542 145 702 9 103 18 119 61 108 14 -3
52 -10 85 -15z m-1091 -229 c35 -13 33 -40 -4 -75 -85 -82 -104 -383 -40 -628
50 -190 143 -352 281 -489 114 -113 206 -161 317 -167 63 -3 85 1 145 25 73
28 103 32 149 21 40 -10 40 -30 0 -88 -45 -68 -238 -267 -317 -326 -78 -60
-221 -127 -312 -147 -226 -50 -460 33 -660 233 -231 233 -342 565 -304 910 31
287 164 490 412 630 185 106 261 129 333 101z m2437 -71 c49 -49 64 -155 34
-240 -50 -141 -233 -276 -470 -345 -122 -35 -308 -44 -416 -20 -265 59 -402
247 -311 427 31 62 29 62 149 25 281 -86 649 -33 889 128 77 52 95 55 125 25z
m-9273 -238 c734 -270 1272 -382 1975 -411 128 -5 244 -10 258 -10 38 0 42
-24 15 -79 -14 -26 -34 -76 -46 -111 -34 -100 -44 -114 -105 -144 -116 -56
-230 -78 -445 -83 -449 -12 -907 90 -1310 292 -212 106 -363 219 -488 365 -85
100 -102 134 -93 186 9 49 18 64 37 64 8 0 98 -31 202 -69z m6150 -54 c8 -9 4
-29 -14 -72 -42 -103 -73 -220 -85 -330 -33 -293 69 -622 259 -836 142 -161
250 -236 423 -295 61 -20 91 -24 194 -24 75 0 143 6 178 15 73 19 86 19 94 -1
7 -19 -19 -47 -132 -142 -368 -309 -949 -529 -1600 -608 -198 -23 -741 -24
-950 0 -537 60 -1145 188 -1590 333 -126 41 -192 72 -219 102 -19 21 -19 25
-3 164 10 78 22 213 27 300 5 87 12 162 15 167 12 20 33 8 125 -71 104 -89
132 -104 160 -89 29 15 32 39 32 219 -1 265 -36 515 -106 759 -19 64 -31 120
-28 124 16 15 160 45 176 36 52 -29 149 -315 202 -598 33 -181 44 -175 20 10
-17 123 -43 232 -94 387 -46 141 -40 155 46 105 187 -109 401 -195 626 -252
237 -60 344 -75 556 -75 217 0 334 20 527 86 240 83 432 181 873 445 140 84
260 153 266 154 6 0 16 -6 22 -13z m3095 -184 c49 -114 170 -432 174 -459 15
-92 -170 -177 -506 -233 -164 -28 -473 -58 -528 -52 -7 0 -13 10 -13 21 0 13
12 25 38 36 54 23 299 79 502 114 183 32 292 60 324 83 32 23 22 88 -44 275
-57 165 -59 174 -45 202 31 60 75 65 98 13z m-144 -57 c18 -21 121 -342 121
-376 0 -58 -66 -79 -460 -150 -124 -22 -313 -64 -420 -93 l-195 -51 -236 -4
c-140 -2 -259 1 -293 7 -93 17 -194 50 -199 65 -7 17 53 145 76 164 9 8 33 16
55 19 49 7 67 -12 52 -52 -15 -38 9 -72 56 -81 20 -4 135 -4 257 -1 202 4 252
9 558 56 345 53 404 65 500 100 112 42 122 79 70 247 -17 54 -31 104 -31 111
0 12 55 53 71 53 4 0 12 -6 18 -14z m-1276 -453 c82 -26 104 -46 72 -69 -13
-10 -54 -14 -141 -14 -141 0 -153 6 -134 65 21 62 53 65 203 18z"/>
<path d="M6515 6184 c-77 -40 -215 -103 -307 -140 -92 -37 -166 -70 -164 -72
2 -2 60 15 128 37 128 43 421 183 473 226 46 38 22 29 -130 -51z"/>
<path d="M3820 4526 c0 -2 8 -24 19 -48 18 -43 81 -112 138 -150 92 -63 226
-112 290 -106 36 3 35 4 -37 27 -177 55 -291 125 -362 223 -40 55 -48 64 -48
54z"/>
<path d="M12291 7016 c-7 -8 -11 -34 -9 -58 l3 -43 18 32 c29 53 19 107 -12
69z"/>
<path d="M10917 6928 c7 -42 20 -57 29 -34 8 20 -10 66 -26 66 -5 0 -7 -14 -3
-32z"/>
<path d="M10425 5890 c-10 -15 21 -23 62 -15 27 5 33 9 22 16 -19 12 -76 11
-84 -1z"/>
<path d="M13680 6148 c-214 -94 -401 -191 -460 -239 -24 -20 -24 -20 10 0 88
54 207 115 340 176 79 36 146 68 149 70 8 8 -13 4 -39 -7z"/>
<path d="M11422 3547 c-19 -23 -23 -61 -9 -81 19 -26 41 -12 26 16 -6 11 -8
33 -5 49 6 32 4 35 -12 16z"/>
<path d="M12744 3455 c-19 -14 -19 -14 2 -15 12 0 27 7 34 15 17 20 -9 21 -36
0z"/>
<path d="M2141 2494 c-125 -219 -249 -384 -405 -539 -126 -125 -211 -192 -446
-355 -321 -221 -533 -380 -1013 -760 -221 -175 -266 -215 -254 -226 2 -2 111
80 243 183 374 291 1027 773 1102 812 24 13 42 7 42 -12 0 -19 -336 -746 -669
-1450 -47 -100 -57 -128 -43 -125 19 3 45 54 208 398 85 179 371 808 549 1208
25 55 41 73 129 146 177 146 353 343 470 523 50 78 142 261 134 268 -2 3 -24
-29 -47 -71z"/>
</g>
</svg>
